<?xml version="1.0" encoding="UTF-8" standalone="no"?>
<!DOCTYPE svg PUBLIC "-//W3C//DTD SVG 1.1//EN" "http://www.w3.org/Graphics/SVG/1.1/DTD/svg11.dtd">
<svg width="100%" height="100%" viewBox="0 0 100 100" version="1.1" xmlns="http://www.w3.org/2000/svg" xmlns:xlink="http://www.w3.org/1999/xlink" xml:space="preserve" style="fill-rule:evenodd;clip-rule:evenodd;stroke-linejoin:round;stroke-miterlimit:1.41421;">
    <path d="M50,0C77.596,0 100,22.404 100,50C100,77.596 77.596,100 50,100C22.404,100 0,77.596 0,50C0,22.404 22.404,0 50,0ZM73.392,76.603C75.734,76.603 76.904,75.627 76.904,73.676C76.904,71.614 75.761,70.582 73.476,70.582C72.974,70.582 72.235,70.638 71.26,70.749C70.284,70.861 69.546,70.917 69.044,70.917C66.591,70.917 64.556,70.471 62.94,69.579C61.323,68.687 59.316,66.903 56.919,64.227C57.922,62.443 59.009,59.935 60.18,56.701C62.354,50.736 64.194,46.472 65.699,43.907C67.539,40.73 69.908,39.141 72.807,39.141C74.591,39.141 75.998,39.629 77.03,40.604C78.061,41.58 78.577,42.876 78.577,44.493C78.577,45.775 78.186,46.862 77.406,47.754C76.625,48.646 75.706,49.092 74.646,49.092C74.535,49.092 74.089,49.036 73.308,48.925C73.587,48.256 73.727,47.81 73.727,47.587C73.727,45.747 72.723,44.827 70.716,44.827C68.375,44.827 67.204,46.165 67.204,48.841C67.204,50.569 67.873,51.963 69.211,53.022C70.549,54.081 72.277,54.611 74.395,54.611C77.294,54.611 79.719,53.593 81.67,51.559C83.622,49.524 84.597,47.029 84.597,44.075C84.597,40.953 83.566,38.43 81.503,36.507C79.441,34.584 76.737,33.622 73.392,33.622C66.201,33.622 60.654,38.751 56.752,49.008L53.49,57.621L52.989,59.043L52.069,57.872C48.222,52.409 45.547,48.423 44.041,45.914L43.122,44.409C51.149,40.284 55.163,35.127 55.163,28.939C55.163,25.595 54.02,22.947 51.734,20.995C49.449,19.044 46.327,18.069 42.369,18.069C38.578,18.069 35.526,19.1 33.213,21.163C30.899,23.225 29.742,25.929 29.742,29.274C29.742,32.507 31.22,36.8 34.174,42.151L33.171,42.653C31.61,43.434 29.91,44.409 28.07,45.58C22.607,49.036 19.875,54.025 19.875,60.548C19.875,65.398 21.492,69.356 24.725,72.422C27.958,75.488 32.112,77.021 37.184,77.021C41.7,77.021 45.686,75.822 49.142,73.425C50.201,72.701 51.484,71.474 52.989,69.746C57.337,74.262 61.434,76.519 65.281,76.519L69.713,76.519C70.493,76.519 71.274,76.547 72.054,76.603L73.392,76.603ZM40.362,53.106C39.024,51.043 37.826,49.092 36.766,47.252C34.648,48.256 32.92,49.343 31.582,50.513C28.516,53.133 26.983,56.45 26.983,60.464C26.983,63.586 27.972,66.109 29.951,68.032C31.93,69.955 34.509,70.917 37.686,70.917C42.425,70.917 46.243,68.993 49.142,65.147C45.407,60.353 42.48,56.339 40.362,53.106ZM36.599,28.939C36.599,31.058 37.826,34.542 40.278,39.392C45.686,36.828 48.39,33.538 48.39,29.525C48.39,27.741 47.846,26.305 46.759,25.218C45.672,24.131 44.209,23.588 42.369,23.588C40.641,23.588 39.247,24.075 38.188,25.051C37.129,26.027 36.599,27.323 36.599,28.939Z" style="fill:rgb(187,213,208);"/>
</svg>
