<?xml version="1.0" encoding="UTF-8" standalone="no"?>
<!DOCTYPE svg PUBLIC "-//W3C//DTD SVG 1.1//EN" "http://www.w3.org/Graphics/SVG/1.1/DTD/svg11.dtd">
<svg width="100%" height="100%" viewBox="0 0 500 194" version="1.1" xmlns="http://www.w3.org/2000/svg" xmlns:xlink="http://www.w3.org/1999/xlink" xml:space="preserve" xmlns:serif="http://www.serif.com/" style="fill-rule:evenodd;clip-rule:evenodd;stroke-linejoin:round;stroke-miterlimit:1.41421;">
    <path d="M177.345,126.556L169.807,132.823L162.118,172.546L173.983,185.503L215.555,176.842L223.269,164.798L204.351,140.421L177.345,126.556Z" style="fill:white;"/>
    <g transform="matrix(0.442352,0,0,0.442352,-557.586,-440.932)">
        <path d="M1608.53,1433.95L1640.09,1294.49L1849.48,1086.2L1957.14,1191.12L1748.39,1401.4L1608.53,1433.95ZM1661.88,1290.7C1658.11,1290.69 1656.62,1292.14 1656.62,1292.14L1648.87,1300.14L1629.93,1382.85L1658.26,1411.82L1742.59,1392.87C1742.59,1392.87 1749.46,1385.27 1749.42,1384.76C1749.39,1384.24 1754.62,1374.69 1746.11,1364.45C1739.64,1356.66 1732.29,1355.19 1726.97,1355.11L1726.63,1355.1C1724.85,1355.09 1723.31,1355.23 1722.12,1355.33C1720.68,1355.45 1719.6,1355.68 1718.87,1355.7L1718.78,1355.7C1717.63,1355.69 1717.4,1355.08 1718.02,1352.43C1718.05,1352.3 1718.06,1352.17 1718.1,1352.04C1720.87,1343.87 1717.15,1334.02 1711.54,1329.4C1707.09,1325.74 1700.9,1322.79 1695.1,1322.72L1694.93,1322.72C1693.36,1322.72 1691.83,1322.93 1690.37,1323.39C1689.36,1323.71 1688.57,1323.87 1687.96,1323.89L1687.82,1323.9C1685.56,1323.92 1685.83,1322.05 1686.34,1319.99C1687.49,1315.37 1688.54,1301.28 1674.13,1294.21C1668.72,1291.55 1664.79,1290.74 1662.04,1290.7L1661.88,1290.7Z" style="fill:rgb(251,191,70);"/>
    </g>
    <g transform="matrix(0.442352,0,0,0.442352,-557.531,-440.888)">
        <path d="M1995.18,1152.83L1887.08,1048.42L1938.99,996.69L1989.98,1048.32L2046.66,1101.6L1995.18,1152.83Z" style="fill:rgb(227,174,148);"/>
    </g>
    <g transform="matrix(0.442352,0,0,0.442352,-588.098,-410.32)">
        <path d="M2036.81,1111.4L1928.71,1006.99L1946.12,989.562L2053.78,1094.48L2036.81,1111.4Z" style="fill:rgb(187,213,208);"/>
    </g>
    <g transform="matrix(1.75821,0,0,1.75821,-1091.63,-506.248)">
        <path d="M677.449,290.488L687.095,302.301L649.272,333.08L636.808,343.376L649.272,353.455L687.095,384.45L677.449,396.155L640.385,365.918L620.877,349.878L620.877,336.765C621.238,336.403 630.089,329.178 647.429,315.089L677.449,290.488Z" style="fill:rgb(187,213,208);fill-rule:nonzero;"/>
        <path d="M878.705,315.089C896.045,329.178 904.896,336.403 905.257,336.765L905.257,349.878L885.749,365.918L848.685,396.155L839.039,384.45L876.862,353.455L889.326,343.376L876.862,333.08L839.039,302.301L848.685,290.488L878.705,315.089Z" style="fill:rgb(187,213,208);fill-rule:nonzero;"/>
    </g>
    <path d="M163.42,170.685L176.198,183.529L159.391,187.776L163.42,170.685Z" style="fill:rgb(155,165,176);"/>
</svg>
