<?xml version="1.0" encoding="UTF-8" standalone="no"?>
<!DOCTYPE svg PUBLIC "-//W3C//DTD SVG 1.1//EN" "http://www.w3.org/Graphics/SVG/1.1/DTD/svg11.dtd">
<svg width="100%" height="100%" viewBox="0 0 500 325" version="1.1" xmlns="http://www.w3.org/2000/svg" xmlns:xlink="http://www.w3.org/1999/xlink" xml:space="preserve" style="fill-rule:evenodd;clip-rule:evenodd;stroke-linejoin:round;stroke-miterlimit:1.41421;">
    <g transform="matrix(4.86931,0,0,4.86931,-4458.89,7220.61)">
        <path d="M927.555,-1445.14L927.555,-1443.76C927.663,-1439.12 928.172,-1435.85 929.081,-1433.97C929.989,-1432.08 931.936,-1431.14 934.92,-1431.14C937.877,-1431.14 939.83,-1432.17 940.779,-1434.23C941.349,-1435.45 941.634,-1437.52 941.634,-1440.42L941.634,-1482.37L954.166,-1482.37L954.166,-1440.62C954.166,-1435.52 953.285,-1431.48 951.521,-1428.5C948.537,-1423.45 943.153,-1420.93 935.367,-1420.93C927.582,-1420.93 922.36,-1422.97 919.702,-1427.05C917.043,-1431.13 915.714,-1436.7 915.714,-1443.76L915.714,-1445.14L927.555,-1445.14Z" style="fill:rgb(249,214,204);fill-rule:nonzero;"/>
    </g>
    <g transform="matrix(4.86931,0,0,4.86931,-4789.71,7220.61)">
        <path d="M1043.93,-1471.95L1043.93,-1455.84L1058.13,-1455.84C1060.95,-1455.84 1063.07,-1456.16 1064.48,-1456.82C1066.97,-1457.95 1068.22,-1460.21 1068.22,-1463.57C1068.22,-1467.21 1067.01,-1469.65 1064.6,-1470.89C1063.24,-1471.6 1061.21,-1471.95 1058.5,-1471.95L1043.93,-1471.95ZM1070.8,-1480.82C1073.07,-1479.87 1074.99,-1478.48 1076.56,-1476.63C1077.86,-1475.11 1078.89,-1473.43 1079.65,-1471.59C1080.41,-1469.74 1080.79,-1467.64 1080.79,-1465.28C1080.79,-1462.43 1080.08,-1459.63 1078.64,-1456.88C1077.2,-1454.12 1074.83,-1452.18 1071.52,-1451.04C1074.28,-1449.93 1076.24,-1448.35 1077.4,-1446.3C1078.55,-1444.25 1079.12,-1441.12 1079.12,-1436.92L1079.12,-1432.89C1079.12,-1430.15 1079.23,-1428.29 1079.45,-1427.32C1079.78,-1425.77 1080.54,-1424.63 1081.73,-1423.9L1081.73,-1422.39L1067.94,-1422.39C1067.56,-1423.72 1067.29,-1424.79 1067.12,-1425.61C1066.8,-1427.29 1066.62,-1429.01 1066.59,-1430.77L1066.51,-1436.35C1066.46,-1440.17 1065.76,-1442.72 1064.42,-1444C1063.07,-1445.27 1060.56,-1445.91 1056.87,-1445.91L1043.93,-1445.91L1043.93,-1422.39L1031.68,-1422.39L1031.68,-1482.37L1061.1,-1482.37C1065.3,-1482.29 1068.54,-1481.77 1070.8,-1480.82Z" style="fill:rgb(249,214,204);fill-rule:nonzero;"/>
    </g>
    <g transform="matrix(4.86931,0,0,4.86931,-4439.76,7238.59)">
        <path d="M927.555,-1445.14L927.555,-1443.76C927.663,-1439.12 928.172,-1435.85 929.081,-1433.97C929.989,-1432.08 931.936,-1431.14 934.92,-1431.14C937.877,-1431.14 939.83,-1432.17 940.779,-1434.23C941.349,-1435.45 941.634,-1437.52 941.634,-1440.42L941.634,-1482.37L954.166,-1482.37L954.166,-1440.62C954.166,-1435.52 953.285,-1431.48 951.521,-1428.5C948.537,-1423.45 943.153,-1420.93 935.367,-1420.93C927.582,-1420.93 922.36,-1422.97 919.702,-1427.05C917.043,-1431.13 915.714,-1436.7 915.714,-1443.76L915.714,-1445.14L927.555,-1445.14Z" style="fill:none;stroke:rgb(227,174,148);stroke-width:1.28px;"/>
    </g>
    <g transform="matrix(4.86931,0,0,4.86931,-4770.57,7238.59)">
        <path d="M1043.93,-1471.95L1043.93,-1455.84L1058.13,-1455.84C1060.95,-1455.84 1063.07,-1456.16 1064.48,-1456.82C1066.97,-1457.95 1068.22,-1460.21 1068.22,-1463.57C1068.22,-1467.21 1067.01,-1469.65 1064.6,-1470.89C1063.24,-1471.6 1061.21,-1471.95 1058.5,-1471.95L1043.93,-1471.95ZM1070.8,-1480.82C1073.07,-1479.87 1074.99,-1478.48 1076.56,-1476.63C1077.86,-1475.11 1078.89,-1473.43 1079.65,-1471.59C1080.41,-1469.74 1080.79,-1467.64 1080.79,-1465.28C1080.79,-1462.43 1080.08,-1459.63 1078.64,-1456.88C1077.2,-1454.12 1074.83,-1452.18 1071.52,-1451.04C1074.28,-1449.93 1076.24,-1448.35 1077.4,-1446.3C1078.55,-1444.25 1079.12,-1441.12 1079.12,-1436.92L1079.12,-1432.89C1079.12,-1430.15 1079.23,-1428.29 1079.45,-1427.32C1079.78,-1425.77 1080.54,-1424.63 1081.73,-1423.9L1081.73,-1422.39L1067.94,-1422.39C1067.56,-1423.72 1067.29,-1424.79 1067.12,-1425.61C1066.8,-1427.29 1066.62,-1429.01 1066.59,-1430.77L1066.51,-1436.35C1066.46,-1440.17 1065.76,-1442.72 1064.42,-1444C1063.07,-1445.27 1060.56,-1445.91 1056.87,-1445.91L1043.93,-1445.91L1043.93,-1422.39L1031.68,-1422.39L1031.68,-1482.37L1061.1,-1482.37C1065.3,-1482.29 1068.54,-1481.77 1070.8,-1480.82Z" style="fill:none;stroke:rgb(227,174,148);stroke-width:1.28px;"/>
    </g>
</svg>
