<?xml version="1.0" encoding="UTF-8" standalone="no"?>
<!DOCTYPE svg PUBLIC "-//W3C//DTD SVG 1.1//EN" "http://www.w3.org/Graphics/SVG/1.1/DTD/svg11.dtd">
<svg width="100%" height="100%" viewBox="0 0 1000 1000" version="1.1" xmlns="http://www.w3.org/2000/svg" xmlns:xlink="http://www.w3.org/1999/xlink" xml:space="preserve" xmlns:serif="http://www.serif.com/" style="fill-rule:evenodd;clip-rule:evenodd;stroke-linejoin:round;stroke-miterlimit:1.41421;">
    <g transform="matrix(-1.04012,1.04012,1.47592,1.47592,701.124,-1012.9)">
        <path d="M877.896,169.735C877.896,158.136 864.533,148.719 848.075,148.719L788.433,148.719C771.974,148.719 758.612,158.136 758.612,169.735L758.612,518.85C758.612,530.449 771.974,539.866 788.433,539.866L848.075,539.866C864.533,539.866 877.896,530.449 877.896,518.85L877.896,169.735Z" style="fill:rgb(40,57,74);"/>
    </g>
    <g transform="matrix(4.5187,-0.732859,-0.732859,4.5187,-553.938,223.994)">
        <path d="M177.345,126.556L169.807,132.823L162.118,172.546L173.983,185.503L215.555,176.842L223.269,164.798L204.351,140.421L177.345,126.556Z" style="fill:white;"/>
    </g>
    <g transform="matrix(1.99886,-0.324181,-0.324181,1.99886,-2750.36,-1359.82)">
        <path d="M1608.53,1433.95L1640.09,1294.49L1849.48,1086.2L1957.14,1191.12L1748.39,1401.4L1608.53,1433.95ZM1661.88,1290.7C1658.11,1290.69 1656.62,1292.14 1656.62,1292.14L1648.87,1300.14L1629.93,1382.85L1658.26,1411.82L1742.59,1392.87C1742.59,1392.87 1749.46,1385.27 1749.42,1384.76C1749.39,1384.24 1754.62,1374.69 1746.11,1364.45C1739.64,1356.66 1732.29,1355.19 1726.97,1355.11L1726.63,1355.1C1724.85,1355.09 1723.31,1355.23 1722.12,1355.33C1720.68,1355.45 1719.6,1355.68 1718.87,1355.7L1718.78,1355.7C1717.63,1355.69 1717.4,1355.08 1718.02,1352.43C1718.05,1352.3 1718.06,1352.17 1718.1,1352.04C1720.87,1343.87 1717.15,1334.02 1711.54,1329.4C1707.09,1325.74 1700.9,1322.79 1695.1,1322.72L1694.93,1322.72C1693.36,1322.72 1691.83,1322.93 1690.37,1323.39C1689.36,1323.71 1688.57,1323.87 1687.96,1323.89L1687.82,1323.9C1685.56,1323.92 1685.83,1322.05 1686.34,1319.99C1687.49,1315.37 1688.54,1301.28 1674.13,1294.21C1668.72,1291.55 1664.79,1290.74 1662.04,1290.7L1661.88,1290.7Z" style="fill:rgb(251,191,70);"/>
    </g>
    <g transform="matrix(1.99886,-0.324181,-0.324181,1.99886,-2750.15,-1359.65)">
        <path d="M1995.18,1152.83L1887.08,1048.42L1938.99,996.69L1989.98,1048.32L2046.66,1101.6L1995.18,1152.83Z" style="fill:rgb(227,174,148);"/>
    </g>
    <g transform="matrix(1.99886,-0.324181,-0.324181,1.99886,-2910.67,-1199.13)">
        <path d="M2036.81,1111.4L1928.71,1006.99L1946.12,989.562L2053.78,1094.48L2036.81,1111.4Z" style="fill:rgb(155,165,176);"/>
    </g>
    <g transform="matrix(4.5187,-0.732859,-0.732859,4.5187,-553.938,223.994)">
        <path d="M163.42,170.685L176.198,183.529L159.391,187.776L163.42,170.685Z" style="fill:rgb(155,165,176);"/>
    </g>
    <g transform="matrix(10.9588,7.24504,7.24504,-10.9588,-2252.5,1048.46)">
        <path d="M184.428,156.694L203.478,141.121L185.023,144.893C184.895,145.934 184.123,146.823 183.04,147.044C181.737,147.311 180.465,146.511 180.123,145.243L162.958,148.749L164.151,154.491L169.66,153.351L184.428,156.694Z" style="fill:rgb(155,165,176);fill-rule:nonzero;"/>
    </g>
    <g transform="matrix(10.9588,7.24504,7.24504,-10.9588,-2252.5,1048.46)">
        <path d="M180.083,145.092C179.807,143.738 180.683,142.415 182.038,142.138C183.121,141.917 184.18,142.431 184.705,143.338L203.161,139.567L179.498,133.007L167.389,142.235L161.856,143.447L162.958,148.749L180.123,145.242C180.11,145.194 180.094,145.144 180.083,145.092" style="fill:rgb(148,159,171);fill-rule:nonzero;"/>
    </g>
    <g transform="matrix(12.2383,7.93814,7.75711,-11.9592,-2526.67,1101.59)">
        <path d="M163.924,156.669C163.463,156.765 163.023,156.504 162.939,156.09L160.157,142.481C160.072,142.067 160.377,141.654 160.838,141.56L163.125,141.092C163.585,140.999 164.027,141.26 164.111,141.674L166.891,155.281C166.978,155.697 166.672,156.109 166.212,156.202L163.924,156.669Z" style="fill:rgb(40,57,74);fill-rule:nonzero;"/>
    </g>
</svg>
