<?xml version="1.0" encoding="UTF-8" standalone="no"?>
<!DOCTYPE svg PUBLIC "-//W3C//DTD SVG 1.1//EN" "http://www.w3.org/Graphics/SVG/1.1/DTD/svg11.dtd">
<svg width="100%" height="100%" viewBox="0 0 1200 750" version="1.1" xmlns="http://www.w3.org/2000/svg" xmlns:xlink="http://www.w3.org/1999/xlink" xml:space="preserve" xmlns:serif="http://www.serif.com/" style="fill-rule:evenodd;clip-rule:evenodd;stroke-linejoin:round;stroke-miterlimit:1.41421;">
    <g transform="matrix(3.9711,0,0,3.99634,-828.72,-700.548)">
        <path d="M507.929,294.012L504.22,280.883L502.181,277.734L497.63,272.441L495.964,271.17L492.399,269.368L491.118,268.282L489.743,267.646L486.179,268.131L484.823,267.521L484.163,267.434L483.323,268.07L482.589,269.094L482.294,270.145L482.522,270.672L483.013,271.061L483.569,271.391L483.993,271.746L485.884,274.559L487.085,275.297L488.544,274.795L488.544,273.967L488.12,274.008L486.839,273.967L488.544,271.162L491.438,271.145L494.14,273.221L495.345,276.668L495.589,277.939L497.114,283.18L497.243,284.848L497.114,290.1L498.054,288.881L498.521,285.426L499.675,284.705L500.485,285.121L501.274,286L502.333,286.799L503.927,286.982L503.927,287.813L502.577,288.396L501.854,288.59L501.054,288.576L502.669,291.369L503.313,295.014L502.823,298.672L501.054,301.498L499.798,302.068L496.827,302.584L494.438,304.279L486.894,306.381L482.548,308.92L479.964,309.918L476.593,309.867L474.923,309.463L474.554,308.75L475.634,308.121L478.708,308.088L479.964,307.57L469.442,306.6L466.267,305.363L460.837,301.602L458.46,298.68L458.577,295.834L459.222,292.869L458.731,288.627L457.452,284.83L455.724,283.18L452.462,283.494L450.911,283.213L449.417,282.037L444.62,277.016L445.356,276.557L445.968,276.406L446.636,276.557L447.45,277.016L448.228,271.721L448.847,270.917L449.636,271.619L450.446,273.246L451.431,276.32L450.911,276.406L450.151,276.846L449.728,277.016L450.567,277.582L451.431,277.836L452.31,277.684L453.147,277.016L453.642,276.26L453.513,275.955L453.073,275.617L450.567,271.594L449.882,269.773L450.298,267.858L448.448,266.019L446.366,262.099L444.89,259.88L443.858,258.949L443.458,258.932L443.417,258.593L443.417,255.265L443.188,254.51L441.081,251.843L439.427,250.334L437.591,249.158L433.61,248.04L431.595,246.431L428.026,242.57L427.976,243.899L428.571,245.677L429.552,247.244L430.636,247.921L430.61,248.582L429.94,249.736L428.962,250.183L428.026,248.685L427.095,249.428L425.741,250.2L424.54,250.682L423.995,250.632L423.776,251.048L423.284,250.996L422.771,250.666L422.396,250.286L422.396,249.81L423.284,248.92L423.53,248.311L422.667,246.855L420.946,246.921L419.671,246.457L420.12,243.399L418.101,244.619L417.313,244.577L416.376,243.746L415.661,242.22L416.06,241.07L417.095,240.383L418.366,240.265L417.901,239.258L417.265,238.624L416.45,238.231L415.521,237.961L416.501,236.505L417.681,237.167L419.085,238.216L420.626,237.961L419.771,237.489L419.085,236.69L418.981,235.927L419.819,235.597L420.946,236.046L422.306,237.827L423.53,237.961L422.87,236.885L422.644,235.844L422.396,233.372L421.71,231.567L421.786,230.593L422.644,229.111L424.267,228.137L426.53,230.891L428.595,230.23L427.536,229.553L426.427,228.611L425.792,227.424L426.065,226.036L426.606,225.613L427.952,225.749L428.595,225.622L429.14,225.223L430.806,223.648L431.173,223.14L431.622,222.716L432.333,222.547L433.042,222.257L432.872,221.625L432.06,220.635L431.714,219.506L430.88,220.107L429.745,221.275L428.595,221.853L428.79,220.786L429.14,219.93L429.646,219.244L430.364,218.711L429.72,217.939L431.13,216.89L435.38,215.101L445.013,212.96L445.653,212.197L446.12,211.207L446.882,210.181L447.86,209.531L448.331,209.607C448.42,209.799 448.51,209.99 448.601,210.181L450.151,210.402L450.542,210.166L451.431,209.487L452.142,208.605L452.532,207.666L453.122,207.022L454.327,207.03L454.327,206.337L453.886,205.423L454.132,204.413L454.249,203.592L453.421,203.253L452.31,203.168L451.597,202.787L451.278,201.881L451.431,200.24L449.167,201.408L448.136,202.221L447.45,203.253L447.618,206.251L447.222,207.285L445.749,206.337L445.653,204.913L441.001,204.457L439.507,202.482L440.317,202.534L441.001,202.406L442.282,201.713L437.565,199.424L435.796,197.528L435.472,194.006L436.386,194.877L438.872,198.629L439.507,197.791L437.075,190.558L436.165,189.176L435.741,188.195L435.472,187.83L435.177,187.737L434.54,187.847L434.321,187.83L432.552,186.974L431.761,186.417L430.927,185.376L434.71,185.637L435.472,185.376L435.626,184.385L434.956,180.386L435.03,179.597L432.06,180.352L430.315,179.896L427.511,178.692L426.53,178.521L425.767,178.557L417.681,182.155L416.771,182.816L416.358,183.214L415.12,184.731L414.511,185.359L413.427,186.153L412.64,186.417L411.706,186.417L410.749,186.229L409.329,186.153L408.489,186.289L407.829,186.542L407.38,186.855L406.938,187.248L406.175,188.185L405.831,188.703L405.194,189.906L404.431,192.022L404.085,192.785L403.229,193.751L402.249,194.209L400.62,194.699L399.765,195.073L399.12,195.505L397.995,196.945L396.794,198.155L395.556,199.086L394.896,199.408L394.054,199.543C385.467,199.25 376.879,198.987 368.292,198.691C359.334,198.382 350.375,198.105 341.417,197.8C332.725,197.503 324.033,197.216 315.341,196.937C309.432,196.747 303.523,196.546 297.615,196.343L297.447,196.343C288.68,196.016 279.914,195.673 271.147,195.346C262.22,195.012 253.292,194.664 244.365,194.331C240.233,194.176 236.102,194.021 231.97,193.862L230.596,195.664C228.229,204.395 225.927,213.144 223.579,221.88C221.324,230.269 219.076,238.661 216.831,247.053C214.839,254.498 212.732,261.915 210.829,269.383L213.064,272.119C222.038,272.465 231.011,272.809 239.985,273.153C248.185,273.468 256.384,273.779 264.583,274.102L269.082,274.518L269.184,277.43L272.766,277.074L273.231,274.518L284.667,274.693L286.605,275.297L287.689,275.482L288.402,275.447L289.899,274.668C299.108,274.834 308.317,275.026 317.526,275.203C326.106,275.368 334.687,275.545 343.267,275.716C346.458,275.778 349.652,275.764 352.843,275.787L352.897,276.988C361.721,276.813 370.544,276.635 379.367,276.454C380.588,276.429 381.808,276.404 383.028,276.379L387.349,276.439L387.45,277.955C387.595,281.461 387.742,284.967 387.89,288.473L388.019,289.211L388.263,289.795L388.925,289.98L390.501,289.879L391.159,290.016L391.458,290.422L391.626,291.691L391.575,292.488L391.509,293.166L391.288,294.121L391.306,294.656L391.431,295.773L391.044,299.543L391.06,300.139L391.21,300.838L391.649,301.686L392.608,302.965L393.964,304.014L394.921,304.549L395.733,304.822L397.259,306.074L399.86,310.564L400.528,309.275L400.694,308.75L401.165,308.105L402.274,308.367L404.11,309.158L404.899,308.646L405.466,307.902L408.073,302.721L409.083,301.332L410.353,300.805L408.296,305.43L403.743,313.195L402.341,317.574L402.12,319.801L402.056,322.455L402.341,327.35L403.28,331.482L403.229,332.293L402.765,333.488L402.985,334.648L404.11,337.242L409.421,332.346L411.485,331.193L411.114,330.652L410.353,328.924L413.427,329.498L414.411,328.924L414.386,326.656L415.47,328.027L415.935,329.703L415.44,331.16L413.776,331.887L416.229,332.998L418.296,332.43L422.007,329.611L421.882,329.898L421.786,330.371L422.937,330.33L423.921,329.754L425.815,328.168L425.276,324.893L426.155,322.885L427.29,321.047L427.462,318.252L429.478,319.6L430.046,320.148L430.392,320.945L430.976,323.014L431.491,323.631L432.452,323.537L432.552,322.268L432.06,319.42L432.847,319.492L434.466,318.82L435.821,317.982L435.741,317.574L435.741,317.041L436.415,316.168L437.396,315.99L438.353,317.574L439.876,315.713L440.462,313.848L441.274,312.695L443.487,312.951L442.722,311.416L442.606,310.08L442.901,306.461L443.69,306.262L445.405,307.191L448.032,309.158L448.601,309.158L448.87,307.803L449.532,307.057L450.321,307.141L450.911,308.332L450.542,308.486L449.728,309.158L450.218,310.375L449.556,311.35L448.552,312.271L448.032,313.332L448.136,314.873L448.552,316.676L448.497,325.139L447.737,328.195L445.749,330.371L448.407,330.152L453.2,327.908L455.724,327.35L458.478,327.23L460.837,326.73L462.882,325.604L464.599,323.631L467.157,319.16L468.015,318.252L469.019,318.541L470.231,320.57L471.112,320.148L472.368,319.068L473.519,318.801L476.278,319.084L477.599,318.846L479.862,317.795L481.089,317.574L480.257,320.369L480.108,321.52L480.843,320.914L482.149,318.744L482.858,317.904L483.698,317.574L484.731,317.346L487.409,315.984L491.438,315.984L504.636,313.617L507.905,314.475L508.444,307.039L508.304,301.262L507.659,299.766L506.431,299.619L504.519,300.805L504.839,299.307L505.151,296.129L505.599,294.656L506.7,295.936L507.905,296.943L508.278,296.91L508.573,296.814L508.845,296.605L509.112,296.25L507.929,294.012ZM506.038,317.488L505.743,317L505.085,316.746L504.415,319.633L501.054,328.168L502.644,327.822L504.813,321.336L506.21,319.084L506.159,318.184L506.038,317.488ZM502.374,351.172L501.054,346.371L500.679,345.498L500.214,344.949L499.595,344.744L498.763,344.863L499.724,347.846L499.13,350.268L496.505,354.672L497.808,354.061L500.138,351.537L501.663,350.971L501.146,352.504L500.214,353.959L499.013,355.059L496.894,355.721L496.013,356.719L495.345,357.002L494.683,356.959L493.919,356.416L493.134,356.18L490.599,356.086L483.429,357.002L483.429,357.686L492.448,360.828L497.089,361.633L501.663,361.455L505.669,359.262L504.905,355.656L502.374,351.172ZM457.103,343.238L455.927,342.779L454.841,341.779L456.487,340.807L457.353,339.949L457.401,338.885L456.536,337.242L455.333,336.664L454.571,337.563L453.808,338.85L452.583,339.512L453.462,336.918L452.437,336.664L447.89,338.596L445.405,341.189L444.321,341.779L443.267,342.594L441.026,346.521L440.022,347.889L438.497,348.557L433.146,348.574L433.146,349.393L434.151,350.148L435.741,352.264L436.606,353.164L438.132,354.096L438.987,354.061L440.587,352.486L442.552,351.172L444.866,350.215L447.372,349.598L459.122,349.371L460.567,348.979L459.753,343.355L457.103,343.238ZM464.897,341.568L463.644,342.604L462.288,344.557L461.161,345.559L461.628,346.803L462.753,348.215L464.083,349.252L465.116,349.393L465.632,348.453L465.778,346.846L465.708,343.355L464.897,341.568Z" style="fill:white;fill-rule:nonzero;"/>
    </g>
    <g transform="matrix(2.94845,0,0,2.94845,448.693,453.301)">
        <path d="M125.324,-79.237L127.426,-72.77L134.225,-72.77L128.724,-68.774L130.825,-62.307L125.324,-66.304L119.824,-62.307L121.925,-68.774L116.424,-72.77L123.223,-72.77L125.324,-79.237Z" style="fill:rgb(187,213,208);"/>
    </g>
    <g transform="matrix(2.70255,0,0,2.58985,-93.1042,-6.98589)">
        <circle cx="347.736" cy="128.326" r="15.646" style="fill:white;"/>
    </g>
    <g transform="matrix(3.38717,0,0,3.38717,-329.163,-110.083)">
        <path d="M358.965,136.736L358.826,136.913C358.488,137.402 358.12,137.87 357.724,138.312L347.257,151.594L336.892,138.44C336.413,137.918 335.973,137.36 335.576,136.77L335.549,136.736L335.553,136.736C334.062,134.504 333.192,131.822 333.192,128.939C333.192,121.18 339.491,114.881 347.25,114.881C355.009,114.881 361.308,121.18 361.308,128.939C361.308,131.822 360.438,134.504 358.946,136.736L358.965,136.736ZM340.946,129.955L340.946,132.344C340.946,132.344 340.738,133.604 343.335,134.443C345.687,135.203 347.336,135.537 350.319,134.419C351.972,133.799 352.849,132.985 352.849,132.04C352.849,131.094 352.849,129.841 352.849,129.841L347.978,131.932C347.978,131.932 346.874,132.411 345.796,132.041C344.459,131.583 340.946,129.955 340.946,129.955ZM354.297,128.771C352.069,129.666 349.236,130.717 347.775,131.304C346.729,131.724 346.74,131.739 345.518,131.28C344.411,130.864 336.723,127.714 336.681,127.714C336.638,127.714 336.309,127.528 336.281,127.229C336.234,126.716 336.89,126.74 336.794,126.704L346.162,123.081C346.162,123.081 346.823,122.732 347.811,123.156C348.936,123.638 356.885,126.678 356.885,126.678C356.885,126.678 357.474,126.905 357.475,127.243C357.476,127.403 356.553,127.84 355.249,128.382L355.249,129.636C355.556,129.808 355.764,130.137 355.764,130.514C355.764,130.8 355.645,131.058 355.454,131.241C355.633,132.717 356.845,132.911 357.093,132.981C357.358,133.055 358.069,133.248 357.277,133.943C356.485,134.638 355.618,135.017 355.098,134.454C354.325,133.617 354.329,131.836 354.341,131.428C353.995,131.27 353.754,130.92 353.754,130.514C353.754,130.126 353.975,129.789 354.297,129.621L354.297,128.771Z" style="fill:rgb(224,34,34);"/>
    </g>
</svg>
