<?xml version="1.0" encoding="UTF-8" standalone="no"?>
<!DOCTYPE svg PUBLIC "-//W3C//DTD SVG 1.1//EN" "http://www.w3.org/Graphics/SVG/1.1/DTD/svg11.dtd">
<svg width="100%" height="100%" viewBox="0 0 310 60" version="1.1" xmlns="http://www.w3.org/2000/svg" xmlns:xlink="http://www.w3.org/1999/xlink" xml:space="preserve" style="fill-rule:evenodd;clip-rule:evenodd;stroke-linejoin:round;stroke-miterlimit:1.41421;">
    <g transform="matrix(1.57432,0,0,1.57432,-1985.89,-478.152)">
        <g>
            <g transform="matrix(0.98452,-0.175271,0.175271,0.98452,-40.0958,226.919)">
                <text x="1264.61px" y="340.453px" style="font-family:'Slabo27px-Regular', 'Slabo 27px', serif;font-size:37.053px;fill:rgb(251,191,70);">M</text>
            </g>
            <g transform="matrix(0.99289,-0.119036,0.119036,0.99289,-30.6696,156.621)">
                <text x="1295.74px" y="335.045px" style="font-family:'Slabo27px-Regular', 'Slabo 27px', serif;font-size:37.053px;fill:rgb(251,191,70);">Y</text>
            </g>
            <g transform="matrix(0.998688,-0.0512135,0.0512135,0.998688,-15.254,68.2613)">
                <text x="1324.38px" y="331.787px" style="font-family:'Slabo27px-Regular', 'Slabo 27px', serif;font-size:37.053px;fill:rgb(251,191,70);">N</text>
            </g>
            <g transform="matrix(0.999998,0.00176121,-0.00176121,0.999998,0.584325,-2.37305)">
                <text x="1347.68px" y="330.587px" style="font-family:'Slabo27px-Regular', 'Slabo 27px', serif;font-size:37.053px;fill:rgb(251,191,70);">A</text>
            </g>
            <g transform="matrix(0.998071,0.0620862,-0.0620862,0.998071,23.1611,-84.3986)">
                <text x="1369.65px" y="330.489px" style="font-family:'Slabo27px-Regular', 'Slabo 27px', serif;font-size:37.053px;fill:rgb(251,191,70);">M</text>
            </g>
            <g transform="matrix(0.993229,0.116173,-0.116173,0.993229,48.1284,-160.519)">
                <text x="1401.11px" y="332.619px" style="font-family:'Slabo27px-Regular', 'Slabo 27px', serif;font-size:37.053px;fill:rgb(251,191,70);">E</text>
            </g>
            <g transform="matrix(0.986932,0.161139,-0.161139,0.986932,72.7744,-225.553)">
                <text x="1426.98px" y="335.898px" style="font-family:'Slabo27px-Regular', 'Slabo 27px', serif;font-size:37.053px;fill:rgb(251,191,70);">I</text>
            </g>
            <g transform="matrix(0.98177,0.190071,-0.190071,0.98177,90.3823,-267.134)">
                <text x="1437.83px" y="337.617px" style="font-family:'Slabo27px-Regular', 'Slabo 27px', serif;font-size:37.053px;fill:rgb(251,191,70);">S</text>
            </g>
        </g>
    </g>
</svg>
