<?xml version="1.0" encoding="UTF-8" standalone="no"?>
<!DOCTYPE svg PUBLIC "-//W3C//DTD SVG 1.1//EN" "http://www.w3.org/Graphics/SVG/1.1/DTD/svg11.dtd">
<svg width="100%" height="100%" viewBox="0 0 410 160" version="1.1" xmlns="http://www.w3.org/2000/svg" xmlns:xlink="http://www.w3.org/1999/xlink" xml:space="preserve" style="fill-rule:evenodd;clip-rule:evenodd;stroke-linejoin:round;stroke-miterlimit:1.41421;">
    <g transform="matrix(0.997121,0,0,0.997121,-885.52,1483.32)">
        <path d="M927.555,-1445.14L927.555,-1443.76C927.663,-1439.12 928.172,-1435.85 929.081,-1433.97C929.989,-1432.08 931.936,-1431.14 934.92,-1431.14C937.877,-1431.14 939.83,-1432.17 940.779,-1434.23C941.349,-1435.45 941.634,-1437.52 941.634,-1440.42L941.634,-1482.37L954.166,-1482.37L954.166,-1440.62C954.166,-1435.52 953.285,-1431.48 951.521,-1428.5C948.537,-1423.45 943.153,-1420.93 935.367,-1420.93C927.582,-1420.93 922.36,-1422.97 919.702,-1427.05C917.043,-1431.13 915.714,-1436.7 915.714,-1443.76L915.714,-1445.14L927.555,-1445.14Z" style="fill:rgb(249,214,204);fill-rule:nonzero;"/>
    </g>
    <g transform="matrix(0.997121,0,0,0.997121,-885.52,1483.32)">
        <path d="M1004.93,-1436.84C1007.84,-1440.5 1009.3,-1445.71 1009.3,-1452.46C1009.3,-1459.19 1007.84,-1464.39 1004.93,-1468.07C1002.01,-1471.74 998.071,-1473.58 993.107,-1473.58C988.142,-1473.58 984.182,-1471.75 981.225,-1468.09C978.268,-1464.42 976.79,-1459.22 976.79,-1452.46C976.79,-1445.71 978.268,-1440.5 981.225,-1436.84C984.182,-1433.17 988.142,-1431.34 993.107,-1431.34C998.071,-1431.34 1002.01,-1433.17 1004.93,-1436.84ZM1012.76,-1427.72C1008.23,-1423.06 1001.68,-1420.72 993.107,-1420.72C984.535,-1420.72 977.983,-1423.06 973.453,-1427.72C967.377,-1433.45 964.339,-1441.69 964.339,-1452.46C964.339,-1463.45 967.377,-1471.69 973.453,-1477.2C977.983,-1481.87 984.535,-1484.2 993.107,-1484.2C1001.68,-1484.2 1008.23,-1481.87 1012.76,-1477.2C1018.81,-1471.69 1021.83,-1463.45 1021.83,-1452.46C1021.83,-1441.69 1018.81,-1433.45 1012.76,-1427.72Z" style="fill:rgb(249,214,204);fill-rule:nonzero;"/>
    </g>
    <g transform="matrix(0.997121,0,0,0.997121,-885.52,1483.32)">
        <path d="M1043.93,-1471.95L1043.93,-1455.84L1058.13,-1455.84C1060.95,-1455.84 1063.07,-1456.16 1064.48,-1456.82C1066.97,-1457.95 1068.22,-1460.21 1068.22,-1463.57C1068.22,-1467.21 1067.01,-1469.65 1064.6,-1470.89C1063.24,-1471.6 1061.21,-1471.95 1058.5,-1471.95L1043.93,-1471.95ZM1070.8,-1480.82C1073.07,-1479.87 1074.99,-1478.48 1076.56,-1476.63C1077.86,-1475.11 1078.89,-1473.43 1079.65,-1471.59C1080.41,-1469.74 1080.79,-1467.64 1080.79,-1465.28C1080.79,-1462.43 1080.08,-1459.63 1078.64,-1456.88C1077.2,-1454.12 1074.83,-1452.18 1071.52,-1451.04C1074.28,-1449.93 1076.24,-1448.35 1077.4,-1446.3C1078.55,-1444.25 1079.12,-1441.12 1079.12,-1436.92L1079.12,-1432.89C1079.12,-1430.15 1079.23,-1428.29 1079.45,-1427.32C1079.78,-1425.77 1080.54,-1424.63 1081.73,-1423.9L1081.73,-1422.39L1067.94,-1422.39C1067.56,-1423.72 1067.29,-1424.79 1067.12,-1425.61C1066.8,-1427.29 1066.62,-1429.01 1066.59,-1430.77L1066.51,-1436.35C1066.46,-1440.17 1065.76,-1442.72 1064.42,-1444C1063.07,-1445.27 1060.56,-1445.91 1056.87,-1445.91L1043.93,-1445.91L1043.93,-1422.39L1031.68,-1422.39L1031.68,-1482.37L1061.1,-1482.37C1065.3,-1482.29 1068.54,-1481.77 1070.8,-1480.82Z" style="fill:rgb(249,214,204);fill-rule:nonzero;"/>
    </g>
    <g transform="matrix(0.997121,0,0,0.997121,-885.52,1483.32)">
        <path d="M1103.74,-1471.95L1103.74,-1432.81L1115.3,-1432.81C1121.21,-1432.81 1125.34,-1435.73 1127.67,-1441.56C1128.94,-1444.76 1129.58,-1448.57 1129.58,-1452.99C1129.58,-1459.1 1128.62,-1463.78 1126.71,-1467.05C1124.8,-1470.32 1121,-1471.95 1115.3,-1471.95L1103.74,-1471.95ZM1126.69,-1481.07C1130.9,-1479.68 1134.3,-1477.15 1136.9,-1473.46C1138.99,-1470.47 1140.42,-1467.25 1141.18,-1463.77C1141.94,-1460.3 1142.32,-1456.99 1142.32,-1453.85C1142.32,-1445.87 1140.72,-1439.12 1137.52,-1433.58C1133.17,-1426.12 1126.48,-1422.39 1117.41,-1422.39L1091.58,-1422.39L1091.58,-1482.37L1117.41,-1482.37C1121.13,-1482.32 1124.22,-1481.88 1126.69,-1481.07Z" style="fill:rgb(249,214,204);fill-rule:nonzero;"/>
    </g>
    <g transform="matrix(0.997121,0,0,0.997121,-885.52,1483.32)">
        <path d="M1168.15,-1445.06L1183.37,-1445.06L1175.89,-1468.66L1168.15,-1445.06ZM1168.93,-1482.37L1183.09,-1482.37L1204.33,-1422.39L1190.74,-1422.39L1186.87,-1434.72L1164.78,-1434.72L1160.63,-1422.39L1147.53,-1422.39L1168.93,-1482.37Z" style="fill:rgb(249,214,204);fill-rule:nonzero;"/>
    </g>
    <g transform="matrix(0.997121,0,0,0.997121,-885.52,1483.32)">
        <path d="M1211.74,-1482.37L1224.88,-1482.37L1248.76,-1440.5L1248.76,-1482.37L1260.44,-1482.37L1260.44,-1422.39L1247.91,-1422.39L1223.41,-1465L1223.41,-1422.39L1211.74,-1422.39L1211.74,-1482.37Z" style="fill:rgb(249,214,204);fill-rule:nonzero;"/>
    </g>
    <g transform="matrix(0.997121,0,0,0.997121,-885.52,1483.32)">
        <path d="M900.353,-1388.62L900.353,-1372.51L914.554,-1372.51C917.376,-1372.51 919.491,-1372.83 920.902,-1373.48C923.398,-1374.62 924.645,-1376.87 924.645,-1380.24C924.645,-1383.87 923.438,-1386.31 921.024,-1387.56C919.668,-1388.27 917.633,-1388.62 914.921,-1388.62L900.353,-1388.62ZM927.229,-1397.49C929.494,-1396.54 931.414,-1395.14 932.987,-1393.3C934.289,-1391.78 935.32,-1390.1 936.079,-1388.25C936.839,-1386.41 937.219,-1384.31 937.219,-1381.95C937.219,-1379.1 936.5,-1376.3 935.062,-1373.54C933.624,-1370.79 931.251,-1368.84 927.941,-1367.7C930.708,-1366.59 932.668,-1365.01 933.821,-1362.96C934.974,-1360.92 935.55,-1357.79 935.55,-1353.59L935.55,-1349.56C935.55,-1346.82 935.659,-1344.96 935.876,-1343.98C936.201,-1342.44 936.961,-1341.3 938.155,-1340.56L938.155,-1339.06L924.361,-1339.06C923.981,-1340.39 923.71,-1341.46 923.547,-1342.27C923.221,-1343.95 923.045,-1345.68 923.018,-1347.44L922.936,-1353.02C922.882,-1356.84 922.184,-1359.39 920.841,-1360.66C919.498,-1361.94 916.982,-1362.58 913.293,-1362.58L900.353,-1362.58L900.353,-1339.06L888.106,-1339.06L888.106,-1399.04L917.525,-1399.04C921.729,-1398.95 924.964,-1398.44 927.229,-1397.49Z" style="fill:rgb(249,214,204);fill-rule:nonzero;"/>
    </g>
    <g transform="matrix(0.997121,0,0,0.997121,-885.52,1483.32)">
        <path d="M986.352,-1353.5C989.268,-1357.17 990.726,-1362.37 990.726,-1369.13C990.726,-1375.86 989.268,-1381.06 986.352,-1384.73C983.436,-1388.41 979.496,-1390.25 974.532,-1390.25C969.567,-1390.25 965.607,-1388.42 962.65,-1384.75C959.693,-1381.09 958.215,-1375.88 958.215,-1369.13C958.215,-1362.37 959.693,-1357.17 962.65,-1353.5C965.607,-1349.84 969.567,-1348.01 974.532,-1348.01C979.496,-1348.01 983.436,-1349.84 986.352,-1353.5ZM994.185,-1344.39C989.655,-1339.72 983.104,-1337.39 974.532,-1337.39C965.959,-1337.39 959.408,-1339.72 954.878,-1344.39C948.802,-1350.11 945.764,-1358.36 945.764,-1369.13C945.764,-1380.12 948.802,-1388.36 954.878,-1393.87C959.408,-1398.53 965.959,-1400.87 974.532,-1400.87C983.104,-1400.87 989.655,-1398.53 994.185,-1393.87C1000.23,-1388.36 1003.26,-1380.12 1003.26,-1369.13C1003.26,-1358.36 1000.23,-1350.11 994.185,-1344.39Z" style="fill:rgb(249,214,204);fill-rule:nonzero;"/>
    </g>
    <g transform="matrix(0.997121,0,0,0.997121,-885.52,1483.32)">
        <path d="M1021.89,-1357.57C1022.27,-1354.83 1023.02,-1352.79 1024.13,-1351.43C1026.17,-1348.96 1029.65,-1347.73 1034.59,-1347.73C1037.55,-1347.73 1039.95,-1348.05 1041.79,-1348.7C1045.29,-1349.95 1047.04,-1352.27 1047.04,-1355.66C1047.04,-1357.64 1046.17,-1359.17 1044.44,-1360.26C1042.7,-1361.32 1039.97,-1362.25 1036.26,-1363.07L1029.91,-1364.49C1023.67,-1365.9 1019.36,-1367.43 1016.97,-1369.09C1012.93,-1371.86 1010.91,-1376.18 1010.91,-1382.07C1010.91,-1387.44 1012.86,-1391.9 1016.77,-1395.45C1020.67,-1399.01 1026.41,-1400.79 1033.98,-1400.79C1040.3,-1400.79 1045.69,-1399.11 1050.15,-1395.76C1054.62,-1392.41 1056.96,-1387.55 1057.17,-1381.17L1045.13,-1381.17C1044.91,-1384.78 1043.34,-1387.34 1040.41,-1388.86C1038.46,-1389.87 1036.03,-1390.37 1033.12,-1390.37C1029.9,-1390.37 1027.32,-1389.72 1025.39,-1388.42C1023.47,-1387.11 1022.5,-1385.3 1022.5,-1382.96C1022.5,-1380.82 1023.46,-1379.22 1025.35,-1378.16C1026.57,-1377.46 1029.18,-1376.63 1033.17,-1375.68L1043.5,-1373.2C1048.03,-1372.11 1051.45,-1370.66 1053.76,-1368.84C1057.34,-1366.02 1059.13,-1361.94 1059.13,-1356.6C1059.13,-1351.12 1057.03,-1346.57 1052.84,-1342.94C1048.65,-1339.32 1042.73,-1337.51 1035.08,-1337.51C1027.27,-1337.51 1021.12,-1339.3 1016.65,-1342.86C1012.17,-1346.43 1009.93,-1351.33 1009.93,-1357.57L1021.89,-1357.57Z" style="fill:rgb(249,214,204);fill-rule:nonzero;"/>
    </g>
    <g transform="matrix(0.997121,0,0,0.997121,-885.52,1483.32)">
        <path d="M1077.48,-1357.57C1077.86,-1354.83 1078.6,-1352.79 1079.71,-1351.43C1081.75,-1348.96 1085.24,-1347.73 1090.17,-1347.73C1093.13,-1347.73 1095.53,-1348.05 1097.38,-1348.7C1100.87,-1349.95 1102.62,-1352.27 1102.62,-1355.66C1102.62,-1357.64 1101.76,-1359.17 1100.02,-1360.26C1098.28,-1361.32 1095.56,-1362.25 1091.84,-1363.07L1085.49,-1364.49C1079.25,-1365.9 1074.94,-1367.43 1072.55,-1369.09C1068.51,-1371.86 1066.49,-1376.18 1066.49,-1382.07C1066.49,-1387.44 1068.44,-1391.9 1072.35,-1395.45C1076.26,-1399.01 1081.99,-1400.79 1089.56,-1400.79C1095.88,-1400.79 1101.27,-1399.11 1105.74,-1395.76C1110.2,-1392.41 1112.54,-1387.55 1112.76,-1381.17L1100.71,-1381.17C1100.5,-1384.78 1098.92,-1387.34 1095.99,-1388.86C1094.04,-1389.87 1091.61,-1390.37 1088.71,-1390.37C1085.48,-1390.37 1082.9,-1389.72 1080.98,-1388.42C1079.05,-1387.11 1078.09,-1385.3 1078.09,-1382.96C1078.09,-1380.82 1079.04,-1379.22 1080.94,-1378.16C1082.16,-1377.46 1084.76,-1376.63 1088.75,-1375.68L1099.08,-1373.2C1103.61,-1372.11 1107.03,-1370.66 1109.34,-1368.84C1112.92,-1366.02 1114.71,-1361.94 1114.71,-1356.6C1114.71,-1351.12 1112.61,-1346.57 1108.42,-1342.94C1104.23,-1339.32 1098.31,-1337.51 1090.66,-1337.51C1082.85,-1337.51 1076.7,-1339.3 1072.23,-1342.86C1067.75,-1346.43 1065.52,-1351.33 1065.52,-1357.57L1077.48,-1357.57Z" style="fill:rgb(249,214,204);fill-rule:nonzero;"/>
    </g>
    <g transform="matrix(0.997121,0,0,0.997121,-885.52,1483.32)">
        <path d="M1168.34,-1388.42L1136.6,-1388.42L1136.6,-1375.68L1165.73,-1375.68L1165.73,-1365.26L1136.6,-1365.26L1136.6,-1349.84L1169.8,-1349.84L1169.8,-1339.06L1124.35,-1339.06L1124.35,-1399.04L1168.34,-1399.04L1168.34,-1388.42Z" style="fill:rgb(249,214,204);fill-rule:nonzero;"/>
    </g>
    <g transform="matrix(0.997121,0,0,0.997121,-885.52,1483.32)">
        <path d="M1223.15,-1399.04L1223.15,-1388.42L1205.2,-1388.42L1205.2,-1339.06L1192.59,-1339.06L1192.59,-1388.42L1174.56,-1388.42L1174.56,-1399.04L1223.15,-1399.04Z" style="fill:rgb(249,214,204);fill-rule:nonzero;"/>
    </g>
    <g transform="matrix(0.997121,0,0,0.997121,-885.52,1483.32)">
        <path d="M1274.05,-1399.04L1274.05,-1388.42L1256.11,-1388.42L1256.11,-1339.06L1243.49,-1339.06L1243.49,-1388.42L1225.47,-1388.42L1225.47,-1399.04L1274.05,-1399.04Z" style="fill:rgb(249,214,204);fill-rule:nonzero;"/>
    </g>
    <g transform="matrix(0.997121,0,0,0.997121,-885.52,1483.32)">
        <rect x="1280.4" y="-1399.04" width="12.451" height="59.977" style="fill:rgb(249,214,204);fill-rule:nonzero;"/>
    </g>
    <g transform="matrix(1,0,0,1,0,-1)">
        <g transform="matrix(0.997121,0,0,0.997121,-881.602,1488)">
            <path d="M927.555,-1445.14L927.555,-1443.76C927.663,-1439.12 928.172,-1435.85 929.081,-1433.97C929.989,-1432.08 931.936,-1431.14 934.92,-1431.14C937.877,-1431.14 939.83,-1432.17 940.779,-1434.23C941.349,-1435.45 941.634,-1437.52 941.634,-1440.42L941.634,-1482.37L954.166,-1482.37L954.166,-1440.62C954.166,-1435.52 953.285,-1431.48 951.521,-1428.5C948.537,-1423.45 943.153,-1420.93 935.367,-1420.93C927.582,-1420.93 922.36,-1422.97 919.702,-1427.05C917.043,-1431.13 915.714,-1436.7 915.714,-1443.76L915.714,-1445.14L927.555,-1445.14Z" style="fill:none;stroke:rgb(227,174,148);stroke-width:2.09px;"/>
        </g>
        <g transform="matrix(0.997121,0,0,0.997121,-881.602,1488)">
            <path d="M1004.93,-1436.84C1007.84,-1440.5 1009.3,-1445.71 1009.3,-1452.46C1009.3,-1459.19 1007.84,-1464.39 1004.93,-1468.07C1002.01,-1471.74 998.071,-1473.58 993.107,-1473.58C988.142,-1473.58 984.182,-1471.75 981.225,-1468.09C978.268,-1464.42 976.79,-1459.22 976.79,-1452.46C976.79,-1445.71 978.268,-1440.5 981.225,-1436.84C984.182,-1433.17 988.142,-1431.34 993.107,-1431.34C998.071,-1431.34 1002.01,-1433.17 1004.93,-1436.84ZM1012.76,-1427.72C1008.23,-1423.06 1001.68,-1420.72 993.107,-1420.72C984.535,-1420.72 977.983,-1423.06 973.453,-1427.72C967.377,-1433.45 964.339,-1441.69 964.339,-1452.46C964.339,-1463.45 967.377,-1471.69 973.453,-1477.2C977.983,-1481.87 984.535,-1484.2 993.107,-1484.2C1001.68,-1484.2 1008.23,-1481.87 1012.76,-1477.2C1018.81,-1471.69 1021.83,-1463.45 1021.83,-1452.46C1021.83,-1441.69 1018.81,-1433.45 1012.76,-1427.72Z" style="fill:none;stroke:rgb(227,174,148);stroke-width:2.09px;"/>
        </g>
        <g transform="matrix(0.997121,0,0,0.997121,-881.602,1488)">
            <path d="M1043.93,-1471.95L1043.93,-1455.84L1058.13,-1455.84C1060.95,-1455.84 1063.07,-1456.16 1064.48,-1456.82C1066.97,-1457.95 1068.22,-1460.21 1068.22,-1463.57C1068.22,-1467.21 1067.01,-1469.65 1064.6,-1470.89C1063.24,-1471.6 1061.21,-1471.95 1058.5,-1471.95L1043.93,-1471.95ZM1070.8,-1480.82C1073.07,-1479.87 1074.99,-1478.48 1076.56,-1476.63C1077.86,-1475.11 1078.89,-1473.43 1079.65,-1471.59C1080.41,-1469.74 1080.79,-1467.64 1080.79,-1465.28C1080.79,-1462.43 1080.08,-1459.63 1078.64,-1456.88C1077.2,-1454.12 1074.83,-1452.18 1071.52,-1451.04C1074.28,-1449.93 1076.24,-1448.35 1077.4,-1446.3C1078.55,-1444.25 1079.12,-1441.12 1079.12,-1436.92L1079.12,-1432.89C1079.12,-1430.15 1079.23,-1428.29 1079.45,-1427.32C1079.78,-1425.77 1080.54,-1424.63 1081.73,-1423.9L1081.73,-1422.39L1067.94,-1422.39C1067.56,-1423.72 1067.29,-1424.79 1067.12,-1425.61C1066.8,-1427.29 1066.62,-1429.01 1066.59,-1430.77L1066.51,-1436.35C1066.46,-1440.17 1065.76,-1442.72 1064.42,-1444C1063.07,-1445.27 1060.56,-1445.91 1056.87,-1445.91L1043.93,-1445.91L1043.93,-1422.39L1031.68,-1422.39L1031.68,-1482.37L1061.1,-1482.37C1065.3,-1482.29 1068.54,-1481.77 1070.8,-1480.82Z" style="fill:none;stroke:rgb(227,174,148);stroke-width:2.09px;"/>
        </g>
        <g transform="matrix(0.997121,0,0,0.997121,-881.602,1488)">
            <path d="M1103.74,-1471.95L1103.74,-1432.81L1115.3,-1432.81C1121.21,-1432.81 1125.34,-1435.73 1127.67,-1441.56C1128.94,-1444.76 1129.58,-1448.57 1129.58,-1452.99C1129.58,-1459.1 1128.62,-1463.78 1126.71,-1467.05C1124.8,-1470.32 1121,-1471.95 1115.3,-1471.95L1103.74,-1471.95ZM1126.69,-1481.07C1130.9,-1479.68 1134.3,-1477.15 1136.9,-1473.46C1138.99,-1470.47 1140.42,-1467.25 1141.18,-1463.77C1141.94,-1460.3 1142.32,-1456.99 1142.32,-1453.85C1142.32,-1445.87 1140.72,-1439.12 1137.52,-1433.58C1133.17,-1426.12 1126.48,-1422.39 1117.41,-1422.39L1091.58,-1422.39L1091.58,-1482.37L1117.41,-1482.37C1121.13,-1482.32 1124.22,-1481.88 1126.69,-1481.07Z" style="fill:none;stroke:rgb(227,174,148);stroke-width:2.09px;"/>
        </g>
        <g transform="matrix(0.997121,0,0,0.997121,-881.602,1488)">
            <path d="M1168.15,-1445.06L1183.37,-1445.06L1175.89,-1468.66L1168.15,-1445.06ZM1168.93,-1482.37L1183.09,-1482.37L1204.33,-1422.39L1190.74,-1422.39L1186.87,-1434.72L1164.78,-1434.72L1160.63,-1422.39L1147.53,-1422.39L1168.93,-1482.37Z" style="fill:none;stroke:rgb(227,174,148);stroke-width:2.09px;"/>
        </g>
        <g transform="matrix(0.997121,0,0,0.997121,-881.602,1488)">
            <path d="M1211.74,-1482.37L1224.88,-1482.37L1248.76,-1440.5L1248.76,-1482.37L1260.44,-1482.37L1260.44,-1422.39L1247.91,-1422.39L1223.41,-1465L1223.41,-1422.39L1211.74,-1422.39L1211.74,-1482.37Z" style="fill:none;stroke:rgb(227,174,148);stroke-width:2.09px;"/>
        </g>
        <g transform="matrix(0.997121,0,0,0.997121,-881.602,1488)">
            <path d="M900.353,-1388.62L900.353,-1372.51L914.554,-1372.51C917.376,-1372.51 919.491,-1372.83 920.902,-1373.48C923.398,-1374.62 924.645,-1376.87 924.645,-1380.24C924.645,-1383.87 923.438,-1386.31 921.024,-1387.56C919.668,-1388.27 917.633,-1388.62 914.921,-1388.62L900.353,-1388.62ZM927.229,-1397.49C929.494,-1396.54 931.414,-1395.14 932.987,-1393.3C934.289,-1391.78 935.32,-1390.1 936.079,-1388.25C936.839,-1386.41 937.219,-1384.31 937.219,-1381.95C937.219,-1379.1 936.5,-1376.3 935.062,-1373.54C933.624,-1370.79 931.251,-1368.84 927.941,-1367.7C930.708,-1366.59 932.668,-1365.01 933.821,-1362.96C934.974,-1360.92 935.55,-1357.79 935.55,-1353.59L935.55,-1349.56C935.55,-1346.82 935.659,-1344.96 935.876,-1343.98C936.201,-1342.44 936.961,-1341.3 938.155,-1340.56L938.155,-1339.06L924.361,-1339.06C923.981,-1340.39 923.71,-1341.46 923.547,-1342.27C923.221,-1343.95 923.045,-1345.68 923.018,-1347.44L922.936,-1353.02C922.882,-1356.84 922.184,-1359.39 920.841,-1360.66C919.498,-1361.94 916.982,-1362.58 913.293,-1362.58L900.353,-1362.58L900.353,-1339.06L888.106,-1339.06L888.106,-1399.04L917.525,-1399.04C921.729,-1398.95 924.964,-1398.44 927.229,-1397.49Z" style="fill:none;stroke:rgb(227,174,148);stroke-width:2.09px;"/>
        </g>
        <g transform="matrix(0.997121,0,0,0.997121,-881.602,1488)">
            <path d="M986.352,-1353.5C989.268,-1357.17 990.726,-1362.37 990.726,-1369.13C990.726,-1375.86 989.268,-1381.06 986.352,-1384.73C983.436,-1388.41 979.496,-1390.25 974.532,-1390.25C969.567,-1390.25 965.607,-1388.42 962.65,-1384.75C959.693,-1381.09 958.215,-1375.88 958.215,-1369.13C958.215,-1362.37 959.693,-1357.17 962.65,-1353.5C965.607,-1349.84 969.567,-1348.01 974.532,-1348.01C979.496,-1348.01 983.436,-1349.84 986.352,-1353.5ZM994.185,-1344.39C989.655,-1339.72 983.104,-1337.39 974.532,-1337.39C965.959,-1337.39 959.408,-1339.72 954.878,-1344.39C948.802,-1350.11 945.764,-1358.36 945.764,-1369.13C945.764,-1380.12 948.802,-1388.36 954.878,-1393.87C959.408,-1398.53 965.959,-1400.87 974.532,-1400.87C983.104,-1400.87 989.655,-1398.53 994.185,-1393.87C1000.23,-1388.36 1003.26,-1380.12 1003.26,-1369.13C1003.26,-1358.36 1000.23,-1350.11 994.185,-1344.39Z" style="fill:none;stroke:rgb(227,174,148);stroke-width:2.09px;"/>
        </g>
        <g transform="matrix(0.997121,0,0,0.997121,-881.602,1488)">
            <path d="M1021.89,-1357.57C1022.27,-1354.83 1023.02,-1352.79 1024.13,-1351.43C1026.17,-1348.96 1029.65,-1347.73 1034.59,-1347.73C1037.55,-1347.73 1039.95,-1348.05 1041.79,-1348.7C1045.29,-1349.95 1047.04,-1352.27 1047.04,-1355.66C1047.04,-1357.64 1046.17,-1359.17 1044.44,-1360.26C1042.7,-1361.32 1039.97,-1362.25 1036.26,-1363.07L1029.91,-1364.49C1023.67,-1365.9 1019.36,-1367.43 1016.97,-1369.09C1012.93,-1371.86 1010.91,-1376.18 1010.91,-1382.07C1010.91,-1387.44 1012.86,-1391.9 1016.77,-1395.45C1020.67,-1399.01 1026.41,-1400.79 1033.98,-1400.79C1040.3,-1400.79 1045.69,-1399.11 1050.15,-1395.76C1054.62,-1392.41 1056.96,-1387.55 1057.17,-1381.17L1045.13,-1381.17C1044.91,-1384.78 1043.34,-1387.34 1040.41,-1388.86C1038.46,-1389.87 1036.03,-1390.37 1033.12,-1390.37C1029.9,-1390.37 1027.32,-1389.72 1025.39,-1388.42C1023.47,-1387.11 1022.5,-1385.3 1022.5,-1382.96C1022.5,-1380.82 1023.46,-1379.22 1025.35,-1378.16C1026.57,-1377.46 1029.18,-1376.63 1033.17,-1375.68L1043.5,-1373.2C1048.03,-1372.11 1051.45,-1370.66 1053.76,-1368.84C1057.34,-1366.02 1059.13,-1361.94 1059.13,-1356.6C1059.13,-1351.12 1057.03,-1346.57 1052.84,-1342.94C1048.65,-1339.32 1042.73,-1337.51 1035.08,-1337.51C1027.27,-1337.51 1021.12,-1339.3 1016.65,-1342.86C1012.17,-1346.43 1009.93,-1351.33 1009.93,-1357.57L1021.89,-1357.57Z" style="fill:none;stroke:rgb(227,174,148);stroke-width:2.09px;"/>
        </g>
        <g transform="matrix(0.997121,0,0,0.997121,-881.602,1488)">
            <path d="M1077.48,-1357.57C1077.86,-1354.83 1078.6,-1352.79 1079.71,-1351.43C1081.75,-1348.96 1085.24,-1347.73 1090.17,-1347.73C1093.13,-1347.73 1095.53,-1348.05 1097.38,-1348.7C1100.87,-1349.95 1102.62,-1352.27 1102.62,-1355.66C1102.62,-1357.64 1101.76,-1359.17 1100.02,-1360.26C1098.28,-1361.32 1095.56,-1362.25 1091.84,-1363.07L1085.49,-1364.49C1079.25,-1365.9 1074.94,-1367.43 1072.55,-1369.09C1068.51,-1371.86 1066.49,-1376.18 1066.49,-1382.07C1066.49,-1387.44 1068.44,-1391.9 1072.35,-1395.45C1076.26,-1399.01 1081.99,-1400.79 1089.56,-1400.79C1095.88,-1400.79 1101.27,-1399.11 1105.74,-1395.76C1110.2,-1392.41 1112.54,-1387.55 1112.76,-1381.17L1100.71,-1381.17C1100.5,-1384.78 1098.92,-1387.34 1095.99,-1388.86C1094.04,-1389.87 1091.61,-1390.37 1088.71,-1390.37C1085.48,-1390.37 1082.9,-1389.72 1080.98,-1388.42C1079.05,-1387.11 1078.09,-1385.3 1078.09,-1382.96C1078.09,-1380.82 1079.04,-1379.22 1080.94,-1378.16C1082.16,-1377.46 1084.76,-1376.63 1088.75,-1375.68L1099.08,-1373.2C1103.61,-1372.11 1107.03,-1370.66 1109.34,-1368.84C1112.92,-1366.02 1114.71,-1361.94 1114.71,-1356.6C1114.71,-1351.12 1112.61,-1346.57 1108.42,-1342.94C1104.23,-1339.32 1098.31,-1337.51 1090.66,-1337.51C1082.85,-1337.51 1076.7,-1339.3 1072.23,-1342.86C1067.75,-1346.43 1065.52,-1351.33 1065.52,-1357.57L1077.48,-1357.57Z" style="fill:none;stroke:rgb(227,174,148);stroke-width:2.09px;"/>
        </g>
        <g transform="matrix(0.997121,0,0,0.997121,-881.602,1488)">
            <path d="M1168.34,-1388.42L1136.6,-1388.42L1136.6,-1375.68L1165.73,-1375.68L1165.73,-1365.26L1136.6,-1365.26L1136.6,-1349.84L1169.8,-1349.84L1169.8,-1339.06L1124.35,-1339.06L1124.35,-1399.04L1168.34,-1399.04L1168.34,-1388.42Z" style="fill:none;stroke:rgb(227,174,148);stroke-width:2.09px;"/>
        </g>
        <g transform="matrix(0.997121,0,0,0.997121,-881.602,1488)">
            <path d="M1223.15,-1399.04L1223.15,-1388.42L1205.2,-1388.42L1205.2,-1339.06L1192.59,-1339.06L1192.59,-1388.42L1174.56,-1388.42L1174.56,-1399.04L1223.15,-1399.04Z" style="fill:none;stroke:rgb(227,174,148);stroke-width:2.09px;"/>
        </g>
        <g transform="matrix(0.997121,0,0,0.997121,-881.602,1488)">
            <path d="M1274.05,-1399.04L1274.05,-1388.42L1256.11,-1388.42L1256.11,-1339.06L1243.49,-1339.06L1243.49,-1388.42L1225.47,-1388.42L1225.47,-1399.04L1274.05,-1399.04Z" style="fill:none;stroke:rgb(227,174,148);stroke-width:2.09px;"/>
        </g>
        <g transform="matrix(0.997121,0,0,0.997121,-881.602,1488)">
            <rect x="1280.4" y="-1399.04" width="12.451" height="59.977" style="fill:none;stroke:rgb(227,174,148);stroke-width:2.09px;"/>
        </g>
    </g>
</svg>
