<?xml version="1.0" encoding="UTF-8" standalone="no"?>
<!DOCTYPE svg PUBLIC "-//W3C//DTD SVG 1.1//EN" "http://www.w3.org/Graphics/SVG/1.1/DTD/svg11.dtd">
<svg width="100%" height="100%" viewBox="0 0 1000 1000" version="1.1" xmlns="http://www.w3.org/2000/svg" xmlns:xlink="http://www.w3.org/1999/xlink" xml:space="preserve" xmlns:serif="http://www.serif.com/" style="fill-rule:evenodd;clip-rule:evenodd;stroke-linejoin:round;stroke-miterlimit:1.41421;">
    <g transform="matrix(0.173511,0,0,0.0776567,-24.5146,216.36)">
        <path d="M569.906,-1089.78L556.446,-1125.16L562.776,-1125.16L570.372,-1103.97C571.194,-1101.68 571.949,-1099.3 572.638,-1096.84C573.171,-1098.7 573.915,-1100.95 574.87,-1103.57L582.733,-1125.16L588.897,-1125.16L575.503,-1089.78L569.906,-1089.78Z" style="fill:rgb(157,165,181);fill-rule:nonzero;"/>
    </g>
    <g transform="matrix(0.950772,0,0,0.696542,-461.61,1148.98)">
        <rect x="684.41" y="-1504.61" width="789.679" height="754.28" style="fill:rgb(40,57,74);"/>
    </g>
    <g transform="matrix(0.921861,0,0,0.214782,-1998.5,424.241)">
        <rect x="2576.69" y="-1505.21" width="610.866" height="94.13" style="fill:rgb(40,57,74);"/>
    </g>
    <g transform="matrix(1.42891,0,0,0.215593,-3614.74,950.224)">
        <rect x="2576.69" y="-1505.21" width="610.866" height="94.13" style="fill:rgb(40,57,74);"/>
    </g>
    <g transform="matrix(0.163683,0,0,0.697006,-44.9123,1149.67)">
        <rect x="684.41" y="-1504.61" width="789.679" height="754.28" style="fill:rgb(40,57,74);"/>
    </g>
    <g transform="matrix(0.173511,0,0,0.0776567,-13.0927,234.73)">
        <path d="M569.906,-1089.78L556.446,-1125.16L562.776,-1125.16L570.372,-1103.97C571.194,-1101.68 571.949,-1099.3 572.638,-1096.84C573.171,-1098.7 573.915,-1100.95 574.87,-1103.57L582.733,-1125.16L588.897,-1125.16L575.503,-1089.78L569.906,-1089.78Z" style="fill:rgb(157,165,181);fill-rule:nonzero;"/>
    </g>
    <g transform="matrix(1.06245e-17,-0.173893,0.0774861,4.7551e-18,172.74,281.588)">
        <path d="M569.906,-1089.78L556.446,-1125.16L562.776,-1125.16L570.372,-1103.97C571.194,-1101.68 571.949,-1099.3 572.638,-1096.84C573.171,-1098.7 573.915,-1100.95 574.87,-1103.57L582.733,-1125.16L588.897,-1125.16L575.503,-1089.78L569.906,-1089.78Z" style="fill:rgb(157,165,181);fill-rule:nonzero;"/>
    </g>
    <g transform="matrix(1.06245e-17,-0.173893,0.0774861,4.7551e-18,172.74,297.848)">
        <path d="M569.906,-1089.78L556.446,-1125.16L562.776,-1125.16L570.372,-1103.97C571.194,-1101.68 571.949,-1099.3 572.638,-1096.84C573.171,-1098.7 573.915,-1100.95 574.87,-1103.57L582.733,-1125.16L588.897,-1125.16L575.503,-1089.78L569.906,-1089.78Z" style="fill:rgb(157,165,181);fill-rule:nonzero;"/>
    </g>
    <g transform="matrix(1.06245e-17,-0.173893,0.0774861,4.7551e-18,172.74,314.378)">
        <path d="M569.906,-1089.78L556.446,-1125.16L562.776,-1125.16L570.372,-1103.97C571.194,-1101.68 571.949,-1099.3 572.638,-1096.84C573.171,-1098.7 573.915,-1100.95 574.87,-1103.57L582.733,-1125.16L588.897,-1125.16L575.503,-1089.78L569.906,-1089.78Z" style="fill:rgb(157,165,181);fill-rule:nonzero;"/>
    </g>
    <g transform="matrix(0.163683,0,0,0.164043,-44.9123,347.663)">
        <path d="M1166.18,-1441.41C1166.18,-1451.55 1157.94,-1459.77 1147.78,-1459.77L1011.61,-1459.77C1001.45,-1459.77 993.21,-1451.55 993.21,-1441.41C993.21,-1431.28 1001.45,-1423.06 1011.61,-1423.06L1147.78,-1423.06C1157.94,-1423.06 1166.18,-1431.28 1166.18,-1441.41Z" style="fill:rgb(157,165,181);"/>
    </g>
    <g transform="matrix(0.653551,0,0,0.164043,-419.325,347.663)">
        <path d="M1166.18,-1441.41C1166.18,-1451.55 1164.12,-1459.77 1161.57,-1459.77L997.818,-1459.77C995.275,-1459.77 993.21,-1451.55 993.21,-1441.41C993.21,-1431.28 995.275,-1423.06 997.818,-1423.06L1161.57,-1423.06C1164.12,-1423.06 1166.18,-1431.28 1166.18,-1441.41Z" style="fill:rgb(157,165,181);"/>
    </g>
    <g transform="matrix(0.151232,0,0,0.295043,113.282,580.768)">
        <path d="M1166.18,-1441.41C1166.18,-1451.55 1150.13,-1459.77 1130.36,-1459.77L1029.03,-1459.77C1009.26,-1459.77 993.21,-1451.55 993.21,-1441.41C993.21,-1431.28 1009.26,-1423.06 1029.03,-1423.06L1130.36,-1423.06C1150.13,-1423.06 1166.18,-1431.28 1166.18,-1441.41Z" style="fill:rgb(226,107,114);"/>
    </g>
    <g transform="matrix(0.097618,0,0,0.295043,185.021,607.942)">
        <path d="M1166.18,-1441.41C1166.18,-1451.55 1141.32,-1459.77 1110.69,-1459.77L1048.7,-1459.77C1018.07,-1459.77 993.21,-1451.55 993.21,-1441.41C993.21,-1431.28 1018.07,-1423.06 1048.7,-1423.06L1110.69,-1423.06C1141.32,-1423.06 1166.18,-1431.28 1166.18,-1441.41Z" style="fill:rgb(226,107,114);"/>
    </g>
    <g transform="matrix(0.097618,0,0,0.295043,220.783,715.852)">
        <path d="M1166.18,-1441.41C1166.18,-1451.55 1141.32,-1459.77 1110.69,-1459.77L1048.7,-1459.77C1018.07,-1459.77 993.21,-1451.55 993.21,-1441.41C993.21,-1431.28 1018.07,-1423.06 1048.7,-1423.06L1110.69,-1423.06C1141.32,-1423.06 1166.18,-1431.28 1166.18,-1441.41Z" style="fill:rgb(226,107,114);"/>
    </g>
    <g transform="matrix(0.097618,0,0,0.295043,220.783,932.185)">
        <path d="M1166.18,-1441.41C1166.18,-1451.55 1141.32,-1459.77 1110.69,-1459.77L1048.7,-1459.77C1018.07,-1459.77 993.21,-1451.55 993.21,-1441.41C993.21,-1431.28 1018.07,-1423.06 1048.7,-1423.06L1110.69,-1423.06C1141.32,-1423.06 1166.18,-1431.28 1166.18,-1441.41Z" style="fill:rgb(226,107,114);"/>
    </g>
    <g transform="matrix(0.0595481,0,0,0.295043,258.595,743.447)">
        <path d="M1166.18,-1442.32C1166.18,-1451.95 1127.43,-1459.77 1079.7,-1459.77C1031.96,-1459.77 993.21,-1451.95 993.21,-1442.32L993.21,-1440.51C993.21,-1430.88 1031.96,-1423.06 1079.7,-1423.06C1127.43,-1423.06 1166.18,-1430.88 1166.18,-1440.51L1166.18,-1442.32Z" style="fill:rgb(226,107,114);"/>
    </g>
    <g transform="matrix(0.0595481,0,0,0.295043,258.595,743.447)">
        <path d="M1166.18,-1442.32C1166.18,-1451.95 1127.43,-1459.77 1079.7,-1459.77C1031.96,-1459.77 993.21,-1451.95 993.21,-1442.32L993.21,-1440.51C993.21,-1430.88 1031.96,-1423.06 1079.7,-1423.06C1127.43,-1423.06 1166.18,-1430.88 1166.18,-1440.51L1166.18,-1442.32Z" style="fill:rgb(226,107,114);"/>
    </g>
    <g transform="matrix(0.0595481,0,0,0.295043,258.595,770.444)">
        <path d="M1166.18,-1442.32C1166.18,-1451.95 1127.43,-1459.77 1079.7,-1459.77C1031.96,-1459.77 993.21,-1451.95 993.21,-1442.32L993.21,-1440.51C993.21,-1430.88 1031.96,-1423.06 1079.7,-1423.06C1127.43,-1423.06 1166.18,-1430.88 1166.18,-1440.51L1166.18,-1442.32Z" style="fill:rgb(226,107,114);"/>
    </g>
    <g transform="matrix(0.0595481,0,0,0.295043,258.595,960.066)">
        <path d="M1166.18,-1442.32C1166.18,-1451.95 1127.43,-1459.77 1079.7,-1459.77C1031.96,-1459.77 993.21,-1451.95 993.21,-1442.32L993.21,-1440.51C993.21,-1430.88 1031.96,-1423.06 1079.7,-1423.06C1127.43,-1423.06 1166.18,-1430.88 1166.18,-1440.51L1166.18,-1442.32Z" style="fill:rgb(226,107,114);"/>
    </g>
    <g transform="matrix(0.0595481,0,0,0.295043,644.066,743.447)">
        <path d="M1166.18,-1442.32C1166.18,-1451.95 1127.43,-1459.77 1079.7,-1459.77C1031.96,-1459.77 993.21,-1451.95 993.21,-1442.32L993.21,-1440.51C993.21,-1430.88 1031.96,-1423.06 1079.7,-1423.06C1127.43,-1423.06 1166.18,-1430.88 1166.18,-1440.51L1166.18,-1442.32Z" style="fill:rgb(226,107,114);"/>
    </g>
    <g transform="matrix(0.0595481,0,0,0.295043,827.527,770.444)">
        <path d="M1166.18,-1442.32C1166.18,-1451.95 1127.43,-1459.77 1079.7,-1459.77C1031.96,-1459.77 993.21,-1451.95 993.21,-1442.32L993.21,-1440.51C993.21,-1430.88 1031.96,-1423.06 1079.7,-1423.06C1127.43,-1423.06 1166.18,-1430.88 1166.18,-1440.51L1166.18,-1442.32Z" style="fill:rgb(226,107,114);"/>
    </g>
    <g transform="matrix(0.0595481,0,0,0.295043,827.527,960.066)">
        <path d="M1166.18,-1442.32C1166.18,-1451.95 1127.43,-1459.77 1079.7,-1459.77C1031.96,-1459.77 993.21,-1451.95 993.21,-1442.32L993.21,-1440.51C993.21,-1430.88 1031.96,-1423.06 1079.7,-1423.06C1127.43,-1423.06 1166.18,-1430.88 1166.18,-1440.51L1166.18,-1442.32Z" style="fill:rgb(226,107,114);"/>
    </g>
    <g transform="matrix(0.097618,0,0,0.295043,688.475,715.852)">
        <path d="M1166.18,-1441.41C1166.18,-1451.55 1141.32,-1459.77 1110.69,-1459.77L1048.7,-1459.77C1018.07,-1459.77 993.21,-1451.55 993.21,-1441.41C993.21,-1431.28 1018.07,-1423.06 1048.7,-1423.06L1110.69,-1423.06C1141.32,-1423.06 1166.18,-1431.28 1166.18,-1441.41Z" style="fill:rgb(226,107,114);"/>
    </g>
    <g transform="matrix(0.097618,0,0,0.295043,598.247,932.185)">
        <path d="M1166.18,-1441.41C1166.18,-1451.55 1141.32,-1459.77 1110.69,-1459.77L1048.7,-1459.77C1018.07,-1459.77 993.21,-1451.55 993.21,-1441.41C993.21,-1431.28 1018.07,-1423.06 1048.7,-1423.06L1110.69,-1423.06C1141.32,-1423.06 1166.18,-1431.28 1166.18,-1441.41Z" style="fill:rgb(226,107,114);"/>
    </g>
    <g transform="matrix(0.097618,0,0,0.295043,460.909,607.942)">
        <path d="M1166.18,-1441.41C1166.18,-1451.55 1141.32,-1459.77 1110.69,-1459.77L1048.7,-1459.77C1018.07,-1459.77 993.21,-1451.55 993.21,-1441.41C993.21,-1431.28 1018.07,-1423.06 1048.7,-1423.06L1110.69,-1423.06C1141.32,-1423.06 1166.18,-1431.28 1166.18,-1441.41Z" style="fill:rgb(226,107,114);"/>
    </g>
    <g transform="matrix(0.2333,0,0,0.295043,78.5819,607.942)">
        <path d="M1166.18,-1441.41C1166.18,-1451.55 1155.78,-1459.77 1142.96,-1459.77L1016.43,-1459.77C1003.61,-1459.77 993.21,-1451.55 993.21,-1441.41C993.21,-1431.28 1003.61,-1423.06 1016.43,-1423.06L1142.96,-1423.06C1155.78,-1423.06 1166.18,-1431.28 1166.18,-1441.41Z" style="fill:rgb(210,154,98);"/>
    </g>
    <g transform="matrix(0.550515,0,0,0.295043,-183.595,607.942)">
        <path d="M1166.18,-1441.41C1166.18,-1451.55 1161.77,-1459.77 1156.34,-1459.77L1003.05,-1459.77C997.619,-1459.77 993.21,-1451.55 993.21,-1441.41C993.21,-1431.28 997.619,-1423.06 1003.05,-1423.06L1156.34,-1423.06C1161.77,-1423.06 1166.18,-1431.28 1166.18,-1441.41Z" style="fill:rgb(151,196,117);"/>
    </g>
    <g transform="matrix(0.397991,0,0,0.295043,76.6737,607.942)">
        <path d="M1166.18,-1441.41C1166.18,-1451.55 1160.08,-1459.77 1152.57,-1459.77L1006.82,-1459.77C999.308,-1459.77 993.21,-1451.55 993.21,-1441.41C993.21,-1431.28 999.308,-1423.06 1006.82,-1423.06L1152.57,-1423.06C1160.08,-1423.06 1166.18,-1431.28 1166.18,-1441.41Z" style="fill:rgb(157,165,181);"/>
    </g>
    <g transform="matrix(1.54138,0,0,0.295043,-1023.51,715.931)">
        <path d="M1166.18,-1441.41C1166.18,-1451.55 1164.61,-1459.77 1162.67,-1459.77L996.724,-1459.77C994.784,-1459.77 993.21,-1451.55 993.21,-1441.41C993.21,-1431.28 994.784,-1423.06 996.724,-1423.06L1162.67,-1423.06C1164.61,-1423.06 1166.18,-1431.28 1166.18,-1441.41Z" style="fill:rgb(157,165,181);"/>
    </g>
    <g transform="matrix(0.977667,0,0,0.295043,-463.619,932.264)">
        <path d="M1166.18,-1441.41C1166.18,-1451.55 1163.7,-1459.77 1160.64,-1459.77L998.75,-1459.77C995.692,-1459.77 993.21,-1451.55 993.21,-1441.41C993.21,-1431.28 995.692,-1423.06 998.75,-1423.06L1160.64,-1423.06C1163.7,-1423.06 1166.18,-1431.28 1166.18,-1441.41Z" style="fill:rgb(157,165,181);"/>
    </g>
    <g transform="matrix(1.13687,0,0,0.295043,-631.827,743.033)">
        <path d="M1166.18,-1441.41C1166.18,-1451.55 1164.05,-1459.77 1161.42,-1459.77L997.974,-1459.77C995.345,-1459.77 993.21,-1451.55 993.21,-1441.41C993.21,-1431.28 995.345,-1423.06 997.974,-1423.06L1161.42,-1423.06C1164.05,-1423.06 1166.18,-1431.28 1166.18,-1441.41Z" style="fill:rgb(157,165,181);"/>
    </g>
    <g transform="matrix(2.18233,0,0,0.295043,-1670.19,770.03)">
        <path d="M1166.18,-1441.41C1166.18,-1451.55 1165.07,-1459.77 1163.7,-1459.77L995.692,-1459.77C994.322,-1459.77 993.21,-1451.55 993.21,-1441.41C993.21,-1431.28 994.322,-1423.06 995.692,-1423.06L1163.7,-1423.06C1165.07,-1423.06 1166.18,-1431.28 1166.18,-1441.41Z" style="fill:rgb(157,165,181);"/>
    </g>
    <g transform="matrix(2.18233,0,0,0.295043,-1670.19,959.651)">
        <path d="M1166.18,-1441.41C1166.18,-1451.55 1165.07,-1459.77 1163.7,-1459.77L995.692,-1459.77C994.322,-1459.77 993.21,-1451.55 993.21,-1441.41C993.21,-1431.28 994.322,-1423.06 995.692,-1423.06L1163.7,-1423.06C1165.07,-1423.06 1166.18,-1431.28 1166.18,-1441.41Z" style="fill:rgb(157,165,181);"/>
    </g>
    <g transform="matrix(0.144676,0,0,0.295043,138.283,635.268)">
        <path d="M1166.18,-1441.41C1166.18,-1451.55 1149.4,-1459.77 1128.74,-1459.77L1030.65,-1459.77C1009.99,-1459.77 993.21,-1451.55 993.21,-1441.41C993.21,-1431.28 1009.99,-1423.06 1030.65,-1423.06L1128.74,-1423.06C1149.4,-1423.06 1166.18,-1431.28 1166.18,-1441.41Z" style="fill:rgb(226,107,114);"/>
    </g>
    <g transform="matrix(0.144676,0,0,0.295043,138.283,851.505)">
        <path d="M1166.18,-1441.41C1166.18,-1451.55 1149.4,-1459.77 1128.74,-1459.77L1030.65,-1459.77C1009.99,-1459.77 993.21,-1451.55 993.21,-1441.41C993.21,-1431.28 1009.99,-1423.06 1030.65,-1423.06L1128.74,-1423.06C1149.4,-1423.06 1166.18,-1431.28 1166.18,-1441.41Z" style="fill:rgb(226,107,114);"/>
    </g>
    <g transform="matrix(0.144676,0,0,0.295043,147.726,824.423)">
        <path d="M1166.18,-1441.41C1166.18,-1451.55 1149.4,-1459.77 1128.74,-1459.77L1030.65,-1459.77C1009.99,-1459.77 993.21,-1451.55 993.21,-1441.41C993.21,-1431.28 1009.99,-1423.06 1030.65,-1423.06L1128.74,-1423.06C1149.4,-1423.06 1166.18,-1431.28 1166.18,-1441.41Z" style="fill:rgb(226,107,114);"/>
    </g>
    <g transform="matrix(0.144676,0,0,0.295043,156.501,661.856)">
        <path d="M1166.18,-1441.41C1166.18,-1451.55 1149.4,-1459.77 1128.74,-1459.77L1030.65,-1459.77C1009.99,-1459.77 993.21,-1451.55 993.21,-1441.41C993.21,-1431.28 1009.99,-1423.06 1030.65,-1423.06L1128.74,-1423.06C1149.4,-1423.06 1166.18,-1431.28 1166.18,-1441.41Z" style="fill:rgb(226,107,114);"/>
    </g>
    <g transform="matrix(0.144676,0,0,0.295043,156.501,877.877)">
        <path d="M1166.18,-1441.41C1166.18,-1451.55 1149.4,-1459.77 1128.74,-1459.77L1030.65,-1459.77C1009.99,-1459.77 993.21,-1451.55 993.21,-1441.41C993.21,-1431.28 1009.99,-1423.06 1030.65,-1423.06L1128.74,-1423.06C1149.4,-1423.06 1166.18,-1431.28 1166.18,-1441.41Z" style="fill:rgb(226,107,114);"/>
    </g>
    <g transform="matrix(0.144676,0,0,0.295043,164.584,986.161)">
        <path d="M1166.18,-1441.41C1166.18,-1451.55 1149.4,-1459.77 1128.74,-1459.77L1030.65,-1459.77C1009.99,-1459.77 993.21,-1451.55 993.21,-1441.41C993.21,-1431.28 1009.99,-1423.06 1030.65,-1423.06L1128.74,-1423.06C1149.4,-1423.06 1166.18,-1431.28 1166.18,-1441.41Z" style="fill:rgb(226,107,114);"/>
    </g>
    <g transform="matrix(0.144676,0,0,0.295043,146.544,1013.09)">
        <path d="M1166.18,-1441.41C1166.18,-1451.55 1149.4,-1459.77 1128.74,-1459.77L1030.65,-1459.77C1009.99,-1459.77 993.21,-1451.55 993.21,-1441.41C993.21,-1431.28 1009.99,-1423.06 1030.65,-1423.06L1128.74,-1423.06C1149.4,-1423.06 1166.18,-1431.28 1166.18,-1441.41Z" style="fill:rgb(226,107,114);"/>
    </g>
    <g transform="matrix(0.144676,0,0,0.295043,128.583,1040.22)">
        <path d="M1166.18,-1441.41C1166.18,-1451.55 1149.4,-1459.77 1128.74,-1459.77L1030.65,-1459.77C1009.99,-1459.77 993.21,-1451.55 993.21,-1441.41C993.21,-1431.28 1009.99,-1423.06 1030.65,-1423.06L1128.74,-1423.06C1149.4,-1423.06 1166.18,-1431.28 1166.18,-1441.41Z" style="fill:rgb(226,107,114);"/>
    </g>
    <g transform="matrix(0.144676,0,0,0.295043,156.501,905.125)">
        <path d="M1166.18,-1441.41C1166.18,-1451.55 1149.4,-1459.77 1128.74,-1459.77L1030.65,-1459.77C1009.99,-1459.77 993.21,-1451.55 993.21,-1441.41C993.21,-1431.28 1009.99,-1423.06 1030.65,-1423.06L1128.74,-1423.06C1149.4,-1423.06 1166.18,-1431.28 1166.18,-1441.41Z" style="fill:rgb(226,107,114);"/>
    </g>
    <g transform="matrix(0.144676,0,0,0.295043,362.104,661.856)">
        <path d="M1166.18,-1441.41C1166.18,-1451.55 1149.4,-1459.77 1128.74,-1459.77L1030.65,-1459.77C1009.99,-1459.77 993.21,-1451.55 993.21,-1441.41C993.21,-1431.28 1009.99,-1423.06 1030.65,-1423.06L1128.74,-1423.06C1149.4,-1423.06 1166.18,-1431.28 1166.18,-1441.41Z" style="fill:rgb(226,107,114);"/>
    </g>
    <g transform="matrix(0.144676,0,0,0.295043,362.104,877.877)">
        <path d="M1166.18,-1441.41C1166.18,-1451.55 1149.4,-1459.77 1128.74,-1459.77L1030.65,-1459.77C1009.99,-1459.77 993.21,-1451.55 993.21,-1441.41C993.21,-1431.28 1009.99,-1423.06 1030.65,-1423.06L1128.74,-1423.06C1149.4,-1423.06 1166.18,-1431.28 1166.18,-1441.41Z" style="fill:rgb(226,107,114);"/>
    </g>
    <g transform="matrix(0.247178,0,0,0.295043,90.9152,661.856)">
        <path d="M1166.18,-1441.41C1166.18,-1451.55 1156.36,-1459.77 1144.27,-1459.77L1015.12,-1459.77C1003.03,-1459.77 993.21,-1451.55 993.21,-1441.41C993.21,-1431.28 1003.03,-1423.06 1015.12,-1423.06L1144.27,-1423.06C1156.36,-1423.06 1166.18,-1431.28 1166.18,-1441.41Z" style="fill:rgb(210,154,98);"/>
    </g>
    <g transform="matrix(0.247178,0,0,0.295043,90.9152,877.877)">
        <path d="M1166.18,-1441.41C1166.18,-1451.55 1156.36,-1459.77 1144.27,-1459.77L1015.12,-1459.77C1003.03,-1459.77 993.21,-1451.55 993.21,-1441.41C993.21,-1431.28 1003.03,-1423.06 1015.12,-1423.06L1144.27,-1423.06C1156.36,-1423.06 1166.18,-1431.28 1166.18,-1441.41Z" style="fill:rgb(210,154,98);"/>
    </g>
    <g transform="matrix(0.247178,0,0,0.295043,90.9152,905.125)">
        <path d="M1166.18,-1441.41C1166.18,-1451.55 1156.36,-1459.77 1144.27,-1459.77L1015.12,-1459.77C1003.03,-1459.77 993.21,-1451.55 993.21,-1441.41C993.21,-1431.28 1003.03,-1423.06 1015.12,-1423.06L1144.27,-1423.06C1156.36,-1423.06 1166.18,-1431.28 1166.18,-1441.41Z" style="fill:rgb(210,154,98);"/>
    </g>
    <g transform="matrix(0.144676,0,0,0.295043,156.501,688.961)">
        <path d="M1166.18,-1441.41C1166.18,-1451.55 1149.4,-1459.77 1128.74,-1459.77L1030.65,-1459.77C1009.99,-1459.77 993.21,-1451.55 993.21,-1441.41C993.21,-1431.28 1009.99,-1423.06 1030.65,-1423.06L1128.74,-1423.06C1149.4,-1423.06 1166.18,-1431.28 1166.18,-1441.41Z" style="fill:rgb(226,107,114);"/>
    </g>
    <g transform="matrix(0.144676,0,0,0.295043,164.358,797.39)">
        <path d="M1166.18,-1441.41C1166.18,-1451.55 1149.4,-1459.77 1128.74,-1459.77L1030.65,-1459.77C1009.99,-1459.77 993.21,-1451.55 993.21,-1441.41C993.21,-1431.28 1009.99,-1423.06 1030.65,-1423.06L1128.74,-1423.06C1149.4,-1423.06 1166.18,-1431.28 1166.18,-1441.41Z" style="fill:rgb(226,107,114);"/>
    </g>
    <g transform="matrix(0.247178,0,0,0.295043,90.9152,688.961)">
        <path d="M1166.18,-1441.41C1166.18,-1451.55 1156.36,-1459.77 1144.27,-1459.77L1015.12,-1459.77C1003.03,-1459.77 993.21,-1451.55 993.21,-1441.41C993.21,-1431.28 1003.03,-1423.06 1015.12,-1423.06L1144.27,-1423.06C1156.36,-1423.06 1166.18,-1431.28 1166.18,-1441.41Z" style="fill:rgb(210,154,98);"/>
    </g>
    <g transform="matrix(0.247178,0,0,0.295043,99.0162,716.349)">
        <path d="M1166.18,-1441.41C1166.18,-1451.55 1156.36,-1459.77 1144.27,-1459.77L1015.12,-1459.77C1003.03,-1459.77 993.21,-1451.55 993.21,-1441.41C993.21,-1431.28 1003.03,-1423.06 1015.12,-1423.06L1144.27,-1423.06C1156.36,-1423.06 1166.18,-1431.28 1166.18,-1441.41Z" style="fill:rgb(210,154,98);"/>
    </g>
    <g transform="matrix(0.247178,0,0,0.295043,99.0162,932.682)">
        <path d="M1166.18,-1441.41C1166.18,-1451.55 1156.36,-1459.77 1144.27,-1459.77L1015.12,-1459.77C1003.03,-1459.77 993.21,-1451.55 993.21,-1441.41C993.21,-1431.28 1003.03,-1423.06 1015.12,-1423.06L1144.27,-1423.06C1156.36,-1423.06 1166.18,-1431.28 1166.18,-1441.41Z" style="fill:rgb(210,154,98);"/>
    </g>
    <g transform="matrix(0.247178,0,0,0.295043,89.9375,743.18)">
        <path d="M1166.18,-1441.41C1166.18,-1451.55 1156.36,-1459.77 1144.27,-1459.77L1015.12,-1459.77C1003.03,-1459.77 993.21,-1451.55 993.21,-1441.41C993.21,-1431.28 1003.03,-1423.06 1015.12,-1423.06L1144.27,-1423.06C1156.36,-1423.06 1166.18,-1431.28 1166.18,-1441.41Z" style="fill:rgb(210,154,98);"/>
    </g>
    <g transform="matrix(0.247178,0,0,0.295043,89.9375,743.18)">
        <path d="M1166.18,-1441.41C1166.18,-1451.55 1156.36,-1459.77 1144.27,-1459.77L1015.12,-1459.77C1003.03,-1459.77 993.21,-1451.55 993.21,-1441.41C993.21,-1431.28 1003.03,-1423.06 1015.12,-1423.06L1144.27,-1423.06C1156.36,-1423.06 1166.18,-1431.28 1166.18,-1441.41Z" style="fill:rgb(210,154,98);"/>
    </g>
    <g transform="matrix(0.247178,0,0,0.295043,89.9375,770.177)">
        <path d="M1166.18,-1441.41C1166.18,-1451.55 1156.36,-1459.77 1144.27,-1459.77L1015.12,-1459.77C1003.03,-1459.77 993.21,-1451.55 993.21,-1441.41C993.21,-1431.28 1003.03,-1423.06 1015.12,-1423.06L1144.27,-1423.06C1156.36,-1423.06 1166.18,-1431.28 1166.18,-1441.41Z" style="fill:rgb(210,154,98);"/>
    </g>
    <g transform="matrix(0.247178,0,0,0.295043,89.9375,959.799)">
        <path d="M1166.18,-1441.41C1166.18,-1451.55 1156.36,-1459.77 1144.27,-1459.77L1015.12,-1459.77C1003.03,-1459.77 993.21,-1451.55 993.21,-1441.41C993.21,-1431.28 1003.03,-1423.06 1015.12,-1423.06L1144.27,-1423.06C1156.36,-1423.06 1166.18,-1431.28 1166.18,-1441.41Z" style="fill:rgb(210,154,98);"/>
    </g>
    <g transform="matrix(0.552342,0,0,0.295043,-157.812,688.961)">
        <path d="M1166.18,-1441.41C1166.18,-1451.55 1161.79,-1459.77 1156.38,-1459.77L1003.02,-1459.77C997.604,-1459.77 993.21,-1451.55 993.21,-1441.41C993.21,-1431.28 997.604,-1423.06 1003.02,-1423.06L1156.38,-1423.06C1161.79,-1423.06 1166.18,-1431.28 1166.18,-1441.41Z" style="fill:rgb(151,196,117);"/>
    </g>
    <g transform="matrix(0.552342,0,0,0.295043,-150.293,715.794)">
        <path d="M1166.18,-1441.41C1166.18,-1451.55 1161.79,-1459.77 1156.38,-1459.77L1003.02,-1459.77C997.604,-1459.77 993.21,-1451.55 993.21,-1441.41C993.21,-1431.28 997.604,-1423.06 1003.02,-1423.06L1156.38,-1423.06C1161.79,-1423.06 1166.18,-1431.28 1166.18,-1441.41Z" style="fill:rgb(151,196,117);"/>
    </g>
    <g transform="matrix(0.552342,0,0,0.295043,-150.293,932.127)">
        <path d="M1166.18,-1441.41C1166.18,-1451.55 1161.79,-1459.77 1156.38,-1459.77L1003.02,-1459.77C997.604,-1459.77 993.21,-1451.55 993.21,-1441.41C993.21,-1431.28 997.604,-1423.06 1003.02,-1423.06L1156.38,-1423.06C1161.79,-1423.06 1166.18,-1431.28 1166.18,-1441.41Z" style="fill:rgb(151,196,117);"/>
    </g>
    <g transform="matrix(0.552342,0,0,0.295043,-158.116,742.98)">
        <path d="M1166.18,-1441.41C1166.18,-1451.55 1161.79,-1459.77 1156.38,-1459.77L1003.02,-1459.77C997.604,-1459.77 993.21,-1451.55 993.21,-1441.41C993.21,-1431.28 997.604,-1423.06 1003.02,-1423.06L1156.38,-1423.06C1161.79,-1423.06 1166.18,-1431.28 1166.18,-1441.41Z" style="fill:rgb(151,196,117);"/>
    </g>
    <g transform="matrix(0.552342,0,0,0.295043,-158.116,742.98)">
        <path d="M1166.18,-1441.41C1166.18,-1451.55 1161.79,-1459.77 1156.38,-1459.77L1003.02,-1459.77C997.604,-1459.77 993.21,-1451.55 993.21,-1441.41C993.21,-1431.28 997.604,-1423.06 1003.02,-1423.06L1156.38,-1423.06C1161.79,-1423.06 1166.18,-1431.28 1166.18,-1441.41Z" style="fill:rgb(151,196,117);"/>
    </g>
    <g transform="matrix(0.552342,0,0,0.295043,-158.116,769.977)">
        <path d="M1166.18,-1441.41C1166.18,-1451.55 1161.79,-1459.77 1156.38,-1459.77L1003.02,-1459.77C997.604,-1459.77 993.21,-1451.55 993.21,-1441.41C993.21,-1431.28 997.604,-1423.06 1003.02,-1423.06L1156.38,-1423.06C1161.79,-1423.06 1166.18,-1431.28 1166.18,-1441.41Z" style="fill:rgb(151,196,117);"/>
    </g>
    <g transform="matrix(0.552342,0,0,0.295043,-158.116,959.599)">
        <path d="M1166.18,-1441.41C1166.18,-1451.55 1161.79,-1459.77 1156.38,-1459.77L1003.02,-1459.77C997.604,-1459.77 993.21,-1451.55 993.21,-1441.41C993.21,-1431.28 997.604,-1423.06 1003.02,-1423.06L1156.38,-1423.06C1161.79,-1423.06 1166.18,-1431.28 1166.18,-1441.41Z" style="fill:rgb(151,196,117);"/>
    </g>
    <g transform="matrix(0.237254,0,0,0.295043,82.9027,635.268)">
        <path d="M1166.18,-1441.41C1166.18,-1451.55 1155.95,-1459.77 1143.35,-1459.77L1016.04,-1459.77C1003.44,-1459.77 993.21,-1451.55 993.21,-1441.41C993.21,-1431.28 1003.44,-1423.06 1016.04,-1423.06L1143.35,-1423.06C1155.95,-1423.06 1166.18,-1431.28 1166.18,-1441.41Z" style="fill:rgb(210,154,98);"/>
    </g>
    <g transform="matrix(0.237254,0,0,0.295043,82.9027,851.505)">
        <path d="M1166.18,-1441.41C1166.18,-1451.55 1155.95,-1459.77 1143.35,-1459.77L1016.04,-1459.77C1003.44,-1459.77 993.21,-1451.55 993.21,-1441.41C993.21,-1431.28 1003.44,-1423.06 1016.04,-1423.06L1143.35,-1423.06C1155.95,-1423.06 1166.18,-1431.28 1166.18,-1441.41Z" style="fill:rgb(210,154,98);"/>
    </g>
    <g transform="matrix(0.237254,0,0,0.295043,136.72,635.268)">
        <path d="M1166.18,-1441.41C1166.18,-1451.55 1155.95,-1459.77 1143.35,-1459.77L1016.04,-1459.77C1003.44,-1459.77 993.21,-1451.55 993.21,-1441.41C993.21,-1431.28 1003.44,-1423.06 1016.04,-1423.06L1143.35,-1423.06C1155.95,-1423.06 1166.18,-1431.28 1166.18,-1441.41Z" style="fill:rgb(151,196,117);"/>
    </g>
    <g transform="matrix(0.237254,0,0,0.295043,136.72,851.505)">
        <path d="M1166.18,-1441.41C1166.18,-1451.55 1155.95,-1459.77 1143.35,-1459.77L1016.04,-1459.77C1003.44,-1459.77 993.21,-1451.55 993.21,-1441.41C993.21,-1431.28 1003.44,-1423.06 1016.04,-1423.06L1143.35,-1423.06C1155.95,-1423.06 1166.18,-1431.28 1166.18,-1441.41Z" style="fill:rgb(151,196,117);"/>
    </g>
    <g transform="matrix(0.498372,0,0,0.295043,-104.26,662.307)">
        <path d="M1166.18,-1441.41C1166.18,-1451.55 1161.31,-1459.77 1155.31,-1459.77L1004.08,-1459.77C998.08,-1459.77 993.21,-1451.55 993.21,-1441.41C993.21,-1431.28 998.08,-1423.06 1004.08,-1423.06L1155.31,-1423.06C1161.31,-1423.06 1166.18,-1431.28 1166.18,-1441.41Z" style="fill:rgb(151,196,117);"/>
    </g>
    <g transform="matrix(0.498372,0,0,0.295043,-104.26,662.307)">
        <path d="M1166.18,-1441.41C1166.18,-1451.55 1161.31,-1459.77 1155.31,-1459.77L1004.08,-1459.77C998.08,-1459.77 993.21,-1451.55 993.21,-1441.41C993.21,-1431.28 998.08,-1423.06 1004.08,-1423.06L1155.31,-1423.06C1161.31,-1423.06 1166.18,-1431.28 1166.18,-1441.41Z" style="fill:rgb(151,196,117);"/>
    </g>
    <g transform="matrix(0.498372,0,0,0.295043,-104.26,878.329)">
        <path d="M1166.18,-1441.41C1166.18,-1451.55 1161.31,-1459.77 1155.31,-1459.77L1004.08,-1459.77C998.08,-1459.77 993.21,-1451.55 993.21,-1441.41C993.21,-1431.28 998.08,-1423.06 1004.08,-1423.06L1155.31,-1423.06C1161.31,-1423.06 1166.18,-1431.28 1166.18,-1441.41Z" style="fill:rgb(151,196,117);"/>
    </g>
    <g transform="matrix(0.553704,0,0,0.295043,-159.217,905.577)">
        <path d="M1166.18,-1441.41C1166.18,-1451.55 1161.8,-1459.77 1156.4,-1459.77L1002.99,-1459.77C997.593,-1459.77 993.21,-1451.55 993.21,-1441.41C993.21,-1431.28 997.593,-1423.06 1002.99,-1423.06L1156.4,-1423.06C1161.8,-1423.06 1166.18,-1431.28 1166.18,-1441.41Z" style="fill:rgb(151,196,117);"/>
    </g>
    <g transform="matrix(0.339183,0,0,0.295043,-8.65208,580.768)">
        <path d="M1166.18,-1441.41C1166.18,-1451.55 1159.03,-1459.77 1150.21,-1459.77L1009.18,-1459.77C1000.37,-1459.77 993.21,-1451.55 993.21,-1441.41C993.21,-1431.28 1000.37,-1423.06 1009.18,-1423.06L1150.21,-1423.06C1159.03,-1423.06 1166.18,-1431.28 1166.18,-1441.41Z" style="fill:rgb(151,196,117);"/>
    </g>
    <g transform="matrix(0.810253,0,0,0.295043,-350.611,580.768)">
        <path d="M1166.18,-1441.41C1166.18,-1451.55 1163.19,-1459.77 1159.5,-1459.77L999.895,-1459.77C996.205,-1459.77 993.21,-1451.55 993.21,-1441.41C993.21,-1431.28 996.205,-1423.06 999.895,-1423.06L1159.5,-1423.06C1163.19,-1423.06 1166.18,-1431.28 1166.18,-1441.41Z" style="fill:rgb(151,196,117);"/>
    </g>
    <g transform="matrix(0.55099,0,0,0.295043,60.8472,580.768)">
        <path d="M1166.18,-1441.41C1166.18,-1451.55 1161.78,-1459.77 1156.35,-1459.77L1003.04,-1459.77C997.615,-1459.77 993.21,-1451.55 993.21,-1441.41C993.21,-1431.28 997.615,-1423.06 1003.04,-1423.06L1156.35,-1423.06C1161.78,-1423.06 1166.18,-1431.28 1166.18,-1441.41Z" style="fill:rgb(151,196,117);"/>
    </g>
    <g transform="matrix(0.45554,0,0,0.295043,261.695,580.768)">
        <path d="M1166.18,-1441.41C1166.18,-1451.55 1160.85,-1459.77 1154.29,-1459.77L1005.1,-1459.77C998.538,-1459.77 993.21,-1451.55 993.21,-1441.41C993.21,-1431.28 998.538,-1423.06 1005.1,-1423.06L1154.29,-1423.06C1160.85,-1423.06 1166.18,-1431.28 1166.18,-1441.41Z" style="fill:rgb(151,196,117);"/>
    </g>
    <g transform="matrix(0.245059,0,0,0.295043,155.413,580.768)">
        <path d="M1166.18,-1441.41C1166.18,-1451.55 1156.28,-1459.77 1144.08,-1459.77L1015.31,-1459.77C1003.11,-1459.77 993.21,-1451.55 993.21,-1441.41C993.21,-1431.28 1003.11,-1423.06 1015.31,-1423.06L1144.08,-1423.06C1156.28,-1423.06 1166.18,-1431.28 1166.18,-1441.41Z" style="fill:rgb(210,154,98);"/>
    </g>
    <g transform="matrix(0.0968907,0,0,0.295043,203.8,580.768)">
        <path d="M1166.18,-1441.41C1166.18,-1451.55 1141.13,-1459.77 1110.28,-1459.77L1049.12,-1459.77C1018.26,-1459.77 993.21,-1451.55 993.21,-1441.41C993.21,-1431.28 1018.26,-1423.06 1049.12,-1423.06L1110.28,-1423.06C1141.13,-1423.06 1166.18,-1431.28 1166.18,-1441.41Z" style="fill:rgb(94,171,216);"/>
    </g>
    <g transform="matrix(0.93186,0,0,0.164043,-542.735,347.663)">
        <path d="M1166.18,-1441.41C1166.18,-1451.55 1164.73,-1459.77 1162.95,-1459.77L996.442,-1459.77C994.658,-1459.77 993.21,-1451.55 993.21,-1441.41C993.21,-1431.28 994.658,-1423.06 996.442,-1423.06L1162.95,-1423.06C1164.73,-1423.06 1166.18,-1431.28 1166.18,-1441.41Z" style="fill:rgb(107,114,125);"/>
    </g>
    <g transform="matrix(0.246686,0,0,0.164043,379.888,347.663)">
        <path d="M1166.18,-1441.41C1166.18,-1451.55 1160.71,-1459.77 1153.97,-1459.77L1005.42,-1459.77C998.68,-1459.77 993.21,-1451.55 993.21,-1441.41C993.21,-1431.28 998.68,-1423.06 1005.42,-1423.06L1153.97,-1423.06C1160.71,-1423.06 1166.18,-1431.28 1166.18,-1441.41Z" style="fill:rgb(107,114,125);"/>
    </g>
    <g transform="matrix(0.224301,0,0,0.164043,-148.62,873.287)">
        <path d="M1166.18,-1441.41C1166.18,-1451.55 1160.16,-1459.77 1152.76,-1459.77L1006.64,-1459.77C999.226,-1459.77 993.21,-1451.55 993.21,-1441.41C993.21,-1431.28 999.226,-1423.06 1006.64,-1423.06L1152.76,-1423.06C1160.16,-1423.06 1166.18,-1431.28 1166.18,-1441.41Z" style="fill:rgb(107,114,125);"/>
    </g>
    <g transform="matrix(0.0912742,0,0,0.164043,36.3097,873.287)">
        <path d="M1166.18,-1441.41C1166.18,-1451.55 1151.4,-1459.77 1133.18,-1459.77L1026.21,-1459.77C1008,-1459.77 993.21,-1451.55 993.21,-1441.41C993.21,-1431.28 1008,-1423.06 1026.21,-1423.06L1133.18,-1423.06C1151.4,-1423.06 1166.18,-1431.28 1166.18,-1441.41Z" style="fill:rgb(107,114,125);"/>
    </g>
    <g transform="matrix(0.0912742,0,0,0.164043,686.809,873.287)">
        <path d="M1166.18,-1441.41C1166.18,-1451.55 1151.4,-1459.77 1133.18,-1459.77L1026.21,-1459.77C1008,-1459.77 993.21,-1451.55 993.21,-1441.41C993.21,-1431.28 1008,-1423.06 1026.21,-1423.06L1133.18,-1423.06C1151.4,-1423.06 1166.18,-1431.28 1166.18,-1441.41Z" style="fill:rgb(107,114,125);"/>
    </g>
    <g transform="matrix(0.0912742,0,0,0.164043,55.7752,873.287)">
        <path d="M1166.18,-1441.41C1166.18,-1451.55 1151.4,-1459.77 1133.18,-1459.77L1026.21,-1459.77C1008,-1459.77 993.21,-1451.55 993.21,-1441.41C993.21,-1431.28 1008,-1423.06 1026.21,-1423.06L1133.18,-1423.06C1151.4,-1423.06 1166.18,-1431.28 1166.18,-1441.41Z" style="fill:rgb(107,114,125);"/>
    </g>
    <g transform="matrix(0.15067,0,0,0.164043,647.282,873.287)">
        <path d="M1166.18,-1441.41C1166.18,-1451.55 1157.23,-1459.77 1146.19,-1459.77L1013.2,-1459.77C1002.17,-1459.77 993.21,-1451.55 993.21,-1441.41C993.21,-1431.28 1002.17,-1423.06 1013.2,-1423.06L1146.19,-1423.06C1157.23,-1423.06 1166.18,-1431.28 1166.18,-1441.41Z" style="fill:rgb(107,114,125);"/>
    </g>
    <g transform="matrix(0.0912742,0,0,0.164043,74.9145,873.287)">
        <path d="M1166.18,-1441.41C1166.18,-1451.55 1151.4,-1459.77 1133.18,-1459.77L1026.21,-1459.77C1008,-1459.77 993.21,-1451.55 993.21,-1441.41C993.21,-1431.28 1008,-1423.06 1026.21,-1423.06L1133.18,-1423.06C1151.4,-1423.06 1166.18,-1431.28 1166.18,-1441.41Z" style="fill:rgb(107,114,125);"/>
    </g>
    <g transform="matrix(0.126753,0,0,0.164043,710.975,873.287)">
        <path d="M1166.18,-1441.41C1166.18,-1451.55 1155.54,-1459.77 1142.42,-1459.77L1016.97,-1459.77C1003.86,-1459.77 993.21,-1451.55 993.21,-1441.41C993.21,-1431.28 1003.86,-1423.06 1016.97,-1423.06L1142.42,-1423.06C1155.54,-1423.06 1166.18,-1431.28 1166.18,-1441.41Z" style="fill:rgb(107,114,125);"/>
    </g>
    <g transform="matrix(0.131005,0,0,0.164043,64.9901,873.287)">
        <path d="M1166.18,-1441.41C1166.18,-1451.55 1155.88,-1459.77 1143.19,-1459.77L1016.2,-1459.77C1003.51,-1459.77 993.21,-1451.55 993.21,-1441.41C993.21,-1431.28 1003.51,-1423.06 1016.2,-1423.06L1143.19,-1423.06C1155.88,-1423.06 1166.18,-1431.28 1166.18,-1441.41Z" style="fill:rgb(107,114,125);"/>
    </g>
    <g transform="matrix(0.0661414,0,0,0.164043,141.211,389.015)">
        <path d="M1166.18,-1441.41C1166.18,-1451.55 1145.78,-1459.77 1120.65,-1459.77L1038.74,-1459.77C1013.61,-1459.77 993.21,-1451.55 993.21,-1441.41C993.21,-1431.28 1013.61,-1423.06 1038.74,-1423.06L1120.65,-1423.06C1145.78,-1423.06 1166.18,-1431.28 1166.18,-1441.41Z" style="fill:rgb(107,114,125);"/>
    </g>
    <g transform="matrix(0.0661414,0,0,0.164043,141.211,569.905)">
        <path d="M1166.18,-1441.41C1166.18,-1451.55 1145.78,-1459.77 1120.65,-1459.77L1038.74,-1459.77C1013.61,-1459.77 993.21,-1451.55 993.21,-1441.41C993.21,-1431.28 1013.61,-1423.06 1038.74,-1423.06L1120.65,-1423.06C1145.78,-1423.06 1166.18,-1431.28 1166.18,-1441.41Z" style="fill:rgb(107,114,125);"/>
    </g>
    <g transform="matrix(0.0661414,0,0,0.164043,141.211,750.331)">
        <path d="M1166.18,-1441.41C1166.18,-1451.55 1145.78,-1459.77 1120.65,-1459.77L1038.74,-1459.77C1013.61,-1459.77 993.21,-1451.55 993.21,-1441.41C993.21,-1431.28 1013.61,-1423.06 1038.74,-1423.06L1120.65,-1423.06C1145.78,-1423.06 1166.18,-1431.28 1166.18,-1441.41Z" style="fill:rgb(107,114,125);"/>
    </g>
    <g transform="matrix(0.0661414,0,0,0.164043,141.211,479.454)">
        <path d="M1166.18,-1441.41C1166.18,-1451.55 1145.78,-1459.77 1120.65,-1459.77L1038.74,-1459.77C1013.61,-1459.77 993.21,-1451.55 993.21,-1441.41C993.21,-1431.28 1013.61,-1423.06 1038.74,-1423.06L1120.65,-1423.06C1145.78,-1423.06 1166.18,-1431.28 1166.18,-1441.41Z" style="fill:rgb(107,114,125);"/>
    </g>
    <g transform="matrix(0.0661414,0,0,0.164043,141.211,659.737)">
        <path d="M1166.18,-1441.41C1166.18,-1451.55 1145.78,-1459.77 1120.65,-1459.77L1038.74,-1459.77C1013.61,-1459.77 993.21,-1451.55 993.21,-1441.41C993.21,-1431.28 1013.61,-1423.06 1038.74,-1423.06L1120.65,-1423.06C1145.78,-1423.06 1166.18,-1431.28 1166.18,-1441.41Z" style="fill:rgb(107,114,125);"/>
    </g>
    <g transform="matrix(0.0661414,0,0,0.164043,141.211,840.278)">
        <path d="M1166.18,-1441.41C1166.18,-1451.55 1145.78,-1459.77 1120.65,-1459.77L1038.74,-1459.77C1013.61,-1459.77 993.21,-1451.55 993.21,-1441.41C993.21,-1431.28 1013.61,-1423.06 1038.74,-1423.06L1120.65,-1423.06C1145.78,-1423.06 1166.18,-1431.28 1166.18,-1441.41Z" style="fill:rgb(107,114,125);"/>
    </g>
    <g transform="matrix(0.0661414,0,0,0.164043,141.211,434.377)">
        <path d="M1166.18,-1441.41C1166.18,-1451.55 1145.78,-1459.77 1120.65,-1459.77L1038.74,-1459.77C1013.61,-1459.77 993.21,-1451.55 993.21,-1441.41C993.21,-1431.28 1013.61,-1423.06 1038.74,-1423.06L1120.65,-1423.06C1145.78,-1423.06 1166.18,-1431.28 1166.18,-1441.41Z" style="fill:rgb(107,114,125);"/>
    </g>
    <g transform="matrix(0.0661414,0,0,0.164043,141.211,614.775)">
        <path d="M1166.18,-1441.41C1166.18,-1451.55 1145.78,-1459.77 1120.65,-1459.77L1038.74,-1459.77C1013.61,-1459.77 993.21,-1451.55 993.21,-1441.41C993.21,-1431.28 1013.61,-1423.06 1038.74,-1423.06L1120.65,-1423.06C1145.78,-1423.06 1166.18,-1431.28 1166.18,-1441.41Z" style="fill:rgb(107,114,125);"/>
    </g>
    <g transform="matrix(0.0661414,0,0,0.164043,141.211,795.201)">
        <path d="M1166.18,-1441.41C1166.18,-1451.55 1145.78,-1459.77 1120.65,-1459.77L1038.74,-1459.77C1013.61,-1459.77 993.21,-1451.55 993.21,-1441.41C993.21,-1431.28 1013.61,-1423.06 1038.74,-1423.06L1120.65,-1423.06C1145.78,-1423.06 1166.18,-1431.28 1166.18,-1441.41Z" style="fill:rgb(107,114,125);"/>
    </g>
    <g transform="matrix(0.0661414,0,0,0.164043,141.211,524.816)">
        <path d="M1166.18,-1441.41C1166.18,-1451.55 1145.78,-1459.77 1120.65,-1459.77L1038.74,-1459.77C1013.61,-1459.77 993.21,-1451.55 993.21,-1441.41C993.21,-1431.28 1013.61,-1423.06 1038.74,-1423.06L1120.65,-1423.06C1145.78,-1423.06 1166.18,-1431.28 1166.18,-1441.41Z" style="fill:rgb(107,114,125);"/>
    </g>
    <g transform="matrix(0.0661414,0,0,0.164043,141.211,704.686)">
        <path d="M1166.18,-1441.41C1166.18,-1451.55 1145.78,-1459.77 1120.65,-1459.77L1038.74,-1459.77C1013.61,-1459.77 993.21,-1451.55 993.21,-1441.41C993.21,-1431.28 1013.61,-1423.06 1038.74,-1423.06L1120.65,-1423.06C1145.78,-1423.06 1166.18,-1431.28 1166.18,-1441.41Z" style="fill:rgb(107,114,125);"/>
    </g>
    <g transform="matrix(0.0661414,0,0,0.164043,141.211,374.561)">
        <path d="M1166.18,-1441.41C1166.18,-1451.55 1145.78,-1459.77 1120.65,-1459.77L1038.74,-1459.77C1013.61,-1459.77 993.21,-1451.55 993.21,-1441.41C993.21,-1431.28 1013.61,-1423.06 1038.74,-1423.06L1120.65,-1423.06C1145.78,-1423.06 1166.18,-1431.28 1166.18,-1441.41Z" style="fill:rgb(107,114,125);"/>
    </g>
    <g transform="matrix(0.0661414,0,0,0.164043,141.211,554.932)">
        <path d="M1166.18,-1441.41C1166.18,-1451.55 1145.78,-1459.77 1120.65,-1459.77L1038.74,-1459.77C1013.61,-1459.77 993.21,-1451.55 993.21,-1441.41C993.21,-1431.28 1013.61,-1423.06 1038.74,-1423.06L1120.65,-1423.06C1145.78,-1423.06 1166.18,-1431.28 1166.18,-1441.41Z" style="fill:rgb(107,114,125);"/>
    </g>
    <g transform="matrix(0.0661414,0,0,0.164043,141.211,735.221)">
        <path d="M1166.18,-1441.41C1166.18,-1451.55 1145.78,-1459.77 1120.65,-1459.77L1038.74,-1459.77C1013.61,-1459.77 993.21,-1451.55 993.21,-1441.41C993.21,-1431.28 1013.61,-1423.06 1038.74,-1423.06L1120.65,-1423.06C1145.78,-1423.06 1166.18,-1431.28 1166.18,-1441.41Z" style="fill:rgb(107,114,125);"/>
    </g>
    <g transform="matrix(0.0661414,0,0,0.164043,141.211,465)">
        <path d="M1166.18,-1441.41C1166.18,-1451.55 1145.78,-1459.77 1120.65,-1459.77L1038.74,-1459.77C1013.61,-1459.77 993.21,-1451.55 993.21,-1441.41C993.21,-1431.28 1013.61,-1423.06 1038.74,-1423.06L1120.65,-1423.06C1145.78,-1423.06 1166.18,-1431.28 1166.18,-1441.41Z" style="fill:rgb(107,114,125);"/>
    </g>
    <g transform="matrix(0.0661414,0,0,0.164043,141.211,645.283)">
        <path d="M1166.18,-1441.41C1166.18,-1451.55 1145.78,-1459.77 1120.65,-1459.77L1038.74,-1459.77C1013.61,-1459.77 993.21,-1451.55 993.21,-1441.41C993.21,-1431.28 1013.61,-1423.06 1038.74,-1423.06L1120.65,-1423.06C1145.78,-1423.06 1166.18,-1431.28 1166.18,-1441.41Z" style="fill:rgb(107,114,125);"/>
    </g>
    <g transform="matrix(0.0661414,0,0,0.164043,141.211,825.496)">
        <path d="M1166.18,-1441.41C1166.18,-1451.55 1145.78,-1459.77 1120.65,-1459.77L1038.74,-1459.77C1013.61,-1459.77 993.21,-1451.55 993.21,-1441.41C993.21,-1431.28 1013.61,-1423.06 1038.74,-1423.06L1120.65,-1423.06C1145.78,-1423.06 1166.18,-1431.28 1166.18,-1441.41Z" style="fill:rgb(107,114,125);"/>
    </g>
    <g transform="matrix(0.0661414,0,0,0.164043,141.211,419.431)">
        <path d="M1166.18,-1441.41C1166.18,-1451.55 1145.78,-1459.77 1120.65,-1459.77L1038.74,-1459.77C1013.61,-1459.77 993.21,-1451.55 993.21,-1441.41C993.21,-1431.28 1013.61,-1423.06 1038.74,-1423.06L1120.65,-1423.06C1145.78,-1423.06 1166.18,-1431.28 1166.18,-1441.41Z" style="fill:rgb(107,114,125);"/>
    </g>
    <g transform="matrix(0.0661414,0,0,0.164043,141.211,600.321)">
        <path d="M1166.18,-1441.41C1166.18,-1451.55 1145.78,-1459.77 1120.65,-1459.77L1038.74,-1459.77C1013.61,-1459.77 993.21,-1451.55 993.21,-1441.41C993.21,-1431.28 1013.61,-1423.06 1038.74,-1423.06L1120.65,-1423.06C1145.78,-1423.06 1166.18,-1431.28 1166.18,-1441.41Z" style="fill:rgb(107,114,125);"/>
    </g>
    <g transform="matrix(0.0661414,0,0,0.164043,141.211,780.255)">
        <path d="M1166.18,-1441.41C1166.18,-1451.55 1145.78,-1459.77 1120.65,-1459.77L1038.74,-1459.77C1013.61,-1459.77 993.21,-1451.55 993.21,-1441.41C993.21,-1431.28 1013.61,-1423.06 1038.74,-1423.06L1120.65,-1423.06C1145.78,-1423.06 1166.18,-1431.28 1166.18,-1441.41Z" style="fill:rgb(107,114,125);"/>
    </g>
    <g transform="matrix(0.0661414,0,0,0.164043,141.211,509.87)">
        <path d="M1166.18,-1441.41C1166.18,-1451.55 1145.78,-1459.77 1120.65,-1459.77L1038.74,-1459.77C1013.61,-1459.77 993.21,-1451.55 993.21,-1441.41C993.21,-1431.28 1013.61,-1423.06 1038.74,-1423.06L1120.65,-1423.06C1145.78,-1423.06 1166.18,-1431.28 1166.18,-1441.41Z" style="fill:rgb(107,114,125);"/>
    </g>
    <g transform="matrix(0.0661414,0,0,0.164043,141.211,690.152)">
        <path d="M1166.18,-1441.41C1166.18,-1451.55 1145.78,-1459.77 1120.65,-1459.77L1038.74,-1459.77C1013.61,-1459.77 993.21,-1451.55 993.21,-1441.41C993.21,-1431.28 1013.61,-1423.06 1038.74,-1423.06L1120.65,-1423.06C1145.78,-1423.06 1166.18,-1431.28 1166.18,-1441.41Z" style="fill:rgb(107,114,125);"/>
    </g>
    <g transform="matrix(0.0661414,0,0,0.164043,141.211,359.429)">
        <path d="M1166.18,-1441.41C1166.18,-1451.55 1145.78,-1459.77 1120.65,-1459.77L1038.74,-1459.77C1013.61,-1459.77 993.21,-1451.55 993.21,-1441.41C993.21,-1431.28 1013.61,-1423.06 1038.74,-1423.06L1120.65,-1423.06C1145.78,-1423.06 1166.18,-1431.28 1166.18,-1441.41Z" style="fill:rgb(107,114,125);"/>
    </g>
    <g transform="matrix(0.0661414,0,0,0.164043,141.211,539.8)">
        <path d="M1166.18,-1441.41C1166.18,-1451.55 1145.78,-1459.77 1120.65,-1459.77L1038.74,-1459.77C1013.61,-1459.77 993.21,-1451.55 993.21,-1441.41C993.21,-1431.28 1013.61,-1423.06 1038.74,-1423.06L1120.65,-1423.06C1145.78,-1423.06 1166.18,-1431.28 1166.18,-1441.41Z" style="fill:rgb(107,114,125);"/>
    </g>
    <g transform="matrix(0.0661414,0,0,0.164043,141.211,720.253)">
        <path d="M1166.18,-1441.41C1166.18,-1451.55 1145.78,-1459.77 1120.65,-1459.77L1038.74,-1459.77C1013.61,-1459.77 993.21,-1451.55 993.21,-1441.41C993.21,-1431.28 1013.61,-1423.06 1038.74,-1423.06L1120.65,-1423.06C1145.78,-1423.06 1166.18,-1431.28 1166.18,-1441.41Z" style="fill:rgb(107,114,125);"/>
    </g>
    <g transform="matrix(0.0661414,0,0,0.164043,141.211,449.869)">
        <path d="M1166.18,-1441.41C1166.18,-1451.55 1145.78,-1459.77 1120.65,-1459.77L1038.74,-1459.77C1013.61,-1459.77 993.21,-1451.55 993.21,-1441.41C993.21,-1431.28 1013.61,-1423.06 1038.74,-1423.06L1120.65,-1423.06C1145.78,-1423.06 1166.18,-1431.28 1166.18,-1441.41Z" style="fill:rgb(107,114,125);"/>
    </g>
    <g transform="matrix(0.0661414,0,0,0.164043,141.211,630.151)">
        <path d="M1166.18,-1441.41C1166.18,-1451.55 1145.78,-1459.77 1120.65,-1459.77L1038.74,-1459.77C1013.61,-1459.77 993.21,-1451.55 993.21,-1441.41C993.21,-1431.28 1013.61,-1423.06 1038.74,-1423.06L1120.65,-1423.06C1145.78,-1423.06 1166.18,-1431.28 1166.18,-1441.41Z" style="fill:rgb(107,114,125);"/>
    </g>
    <g transform="matrix(0.0661414,0,0,0.164043,141.211,810.365)">
        <path d="M1166.18,-1441.41C1166.18,-1451.55 1145.78,-1459.77 1120.65,-1459.77L1038.74,-1459.77C1013.61,-1459.77 993.21,-1451.55 993.21,-1441.41C993.21,-1431.28 1013.61,-1423.06 1038.74,-1423.06L1120.65,-1423.06C1145.78,-1423.06 1166.18,-1431.28 1166.18,-1441.41Z" style="fill:rgb(107,114,125);"/>
    </g>
    <g transform="matrix(0.0661414,0,0,0.164043,141.211,404.299)">
        <path d="M1166.18,-1441.41C1166.18,-1451.55 1145.78,-1459.77 1120.65,-1459.77L1038.74,-1459.77C1013.61,-1459.77 993.21,-1451.55 993.21,-1441.41C993.21,-1431.28 1013.61,-1423.06 1038.74,-1423.06L1120.65,-1423.06C1145.78,-1423.06 1166.18,-1431.28 1166.18,-1441.41Z" style="fill:rgb(107,114,125);"/>
    </g>
    <g transform="matrix(0.0661414,0,0,0.164043,141.211,585.19)">
        <path d="M1166.18,-1441.41C1166.18,-1451.55 1145.78,-1459.77 1120.65,-1459.77L1038.74,-1459.77C1013.61,-1459.77 993.21,-1451.55 993.21,-1441.41C993.21,-1431.28 1013.61,-1423.06 1038.74,-1423.06L1120.65,-1423.06C1145.78,-1423.06 1166.18,-1431.28 1166.18,-1441.41Z" style="fill:rgb(107,114,125);"/>
    </g>
    <g transform="matrix(0.0661414,0,0,0.164043,141.211,765.287)">
        <path d="M1166.18,-1441.41C1166.18,-1451.55 1145.78,-1459.77 1120.65,-1459.77L1038.74,-1459.77C1013.61,-1459.77 993.21,-1451.55 993.21,-1441.41C993.21,-1431.28 1013.61,-1423.06 1038.74,-1423.06L1120.65,-1423.06C1145.78,-1423.06 1166.18,-1431.28 1166.18,-1441.41Z" style="fill:rgb(107,114,125);"/>
    </g>
    <g transform="matrix(0.0661414,0,0,0.164043,141.211,494.738)">
        <path d="M1166.18,-1441.41C1166.18,-1451.55 1145.78,-1459.77 1120.65,-1459.77L1038.74,-1459.77C1013.61,-1459.77 993.21,-1451.55 993.21,-1441.41C993.21,-1431.28 1013.61,-1423.06 1038.74,-1423.06L1120.65,-1423.06C1145.78,-1423.06 1166.18,-1431.28 1166.18,-1441.41Z" style="fill:rgb(107,114,125);"/>
    </g>
    <g transform="matrix(0.0661414,0,0,0.164043,141.211,675.021)">
        <path d="M1166.18,-1441.41C1166.18,-1451.55 1145.78,-1459.77 1120.65,-1459.77L1038.74,-1459.77C1013.61,-1459.77 993.21,-1451.55 993.21,-1441.41C993.21,-1431.28 1013.61,-1423.06 1038.74,-1423.06L1120.65,-1423.06C1145.78,-1423.06 1166.18,-1431.28 1166.18,-1441.41Z" style="fill:rgb(107,114,125);"/>
    </g>
    <g transform="matrix(0.0661414,0,0,0.164043,141.211,855.234)">
        <path d="M1166.18,-1441.41C1166.18,-1451.55 1145.78,-1459.77 1120.65,-1459.77L1038.74,-1459.77C1013.61,-1459.77 993.21,-1451.55 993.21,-1441.41C993.21,-1431.28 1013.61,-1423.06 1038.74,-1423.06L1120.65,-1423.06C1145.78,-1423.06 1166.18,-1431.28 1166.18,-1441.41Z" style="fill:rgb(107,114,125);"/>
    </g>
    <g transform="matrix(0.20818,0,0,0.164043,664.552,873.287)">
        <path d="M1166.18,-1441.41C1166.18,-1451.55 1159.7,-1459.77 1151.71,-1459.77L1007.68,-1459.77C999.692,-1459.77 993.21,-1451.55 993.21,-1441.41C993.21,-1431.28 999.692,-1423.06 1007.68,-1423.06L1151.71,-1423.06C1159.7,-1423.06 1166.18,-1431.28 1166.18,-1441.41Z" style="fill:rgb(107,114,125);"/>
    </g>
    <g transform="matrix(0.251488,0,0,0.164043,-130.124,403.787)">
        <path d="M1166.18,-1441.41C1166.18,-1451.55 1160.82,-1459.77 1154.21,-1459.77L1005.19,-1459.77C998.576,-1459.77 993.21,-1451.55 993.21,-1441.41C993.21,-1431.28 998.576,-1423.06 1005.19,-1423.06L1154.21,-1423.06C1160.82,-1423.06 1166.18,-1431.28 1166.18,-1441.41Z" style="fill:rgb(157,165,181);"/>
    </g>
    <g transform="matrix(0.316761,0,0,0.164043,-206.391,420.199)">
        <path d="M1166.18,-1441.41C1166.18,-1451.55 1161.92,-1459.77 1156.67,-1459.77L1002.72,-1459.77C997.47,-1459.77 993.21,-1451.55 993.21,-1441.41C993.21,-1431.28 997.47,-1423.06 1002.72,-1423.06L1156.67,-1423.06C1161.92,-1423.06 1166.18,-1431.28 1166.18,-1441.41Z" style="fill:rgb(157,165,181);"/>
    </g>
    <g transform="matrix(0.167265,0,0,0.164043,-57.9103,436.325)">
        <path d="M1166.18,-1441.41C1166.18,-1451.55 1158.11,-1459.77 1148.18,-1459.77L1011.22,-1459.77C1001.28,-1459.77 993.21,-1451.55 993.21,-1441.41C993.21,-1431.28 1001.28,-1423.06 1011.22,-1423.06L1148.18,-1423.06C1158.11,-1423.06 1166.18,-1431.28 1166.18,-1441.41Z" style="fill:rgb(157,165,181);"/>
    </g>
    <g transform="matrix(0.218441,0,0,0.164043,-108.738,468.937)">
        <path d="M1166.18,-1441.41C1166.18,-1451.55 1160,-1459.77 1152.39,-1459.77L1007,-1459.77C999.388,-1459.77 993.21,-1451.55 993.21,-1441.41C993.21,-1431.28 999.388,-1423.06 1007,-1423.06L1152.39,-1423.06C1160,-1423.06 1166.18,-1431.28 1166.18,-1441.41Z" style="fill:rgb(157,165,181);"/>
    </g>
    <g transform="matrix(0.229977,0,0,0.164043,-120.196,518.434)">
        <path d="M1166.18,-1441.41C1166.18,-1451.55 1160.31,-1459.77 1153.09,-1459.77L1006.31,-1459.77C999.078,-1459.77 993.21,-1451.55 993.21,-1441.41C993.21,-1431.28 999.078,-1423.06 1006.31,-1423.06L1153.09,-1423.06C1160.31,-1423.06 1166.18,-1431.28 1166.18,-1441.41Z" style="fill:rgb(157,165,181);"/>
    </g>
    <g transform="matrix(0.309492,0,0,0.164043,-199.172,484.601)">
        <path d="M1166.18,-1441.41C1166.18,-1451.55 1161.82,-1459.77 1156.45,-1459.77L1002.94,-1459.77C997.57,-1459.77 993.21,-1451.55 993.21,-1441.41C993.21,-1431.28 997.57,-1423.06 1002.94,-1423.06L1156.45,-1423.06C1161.82,-1423.06 1166.18,-1431.28 1166.18,-1441.41Z" style="fill:rgb(157,165,181);"/>
    </g>
    <g transform="matrix(0.189036,0,0,0.164043,-79.5332,501.634)">
        <path d="M1166.18,-1441.41C1166.18,-1451.55 1159.04,-1459.77 1150.25,-1459.77L1009.14,-1459.77C1000.35,-1459.77 993.21,-1451.55 993.21,-1441.41C993.21,-1431.28 1000.35,-1423.06 1009.14,-1423.06L1150.25,-1423.06C1159.04,-1423.06 1166.18,-1431.28 1166.18,-1441.41Z" style="fill:rgb(157,165,181);"/>
    </g>
    <g transform="matrix(0.0796109,0,0,0.164043,17.5263,368.347)">
        <path d="M1166.18,-1441.41C1166.18,-1451.55 1149.23,-1459.77 1128.35,-1459.77L1031.04,-1459.77C1010.16,-1459.77 993.21,-1451.55 993.21,-1441.41C993.21,-1431.28 1010.16,-1423.06 1031.04,-1423.06L1128.35,-1423.06C1149.23,-1423.06 1166.18,-1431.28 1166.18,-1441.41Z" style="fill:rgb(157,165,181);"/>
    </g>
    <g transform="matrix(0.0796109,0,0,0.164043,28.3627,387.29)">
        <path d="M1166.18,-1441.41C1166.18,-1451.55 1149.23,-1459.77 1128.35,-1459.77L1031.04,-1459.77C1010.16,-1459.77 993.21,-1451.55 993.21,-1441.41C993.21,-1431.28 1010.16,-1423.06 1031.04,-1423.06L1128.35,-1423.06C1149.23,-1423.06 1166.18,-1431.28 1166.18,-1441.41Z" style="fill:rgb(157,165,181);"/>
    </g>
    <g transform="matrix(0.0796109,0,0,0.164043,28.3627,452.654)">
        <path d="M1166.18,-1441.41C1166.18,-1451.55 1149.23,-1459.77 1128.35,-1459.77L1031.04,-1459.77C1010.16,-1459.77 993.21,-1451.55 993.21,-1441.41C993.21,-1431.28 1010.16,-1423.06 1031.04,-1423.06L1128.35,-1423.06C1149.23,-1423.06 1166.18,-1431.28 1166.18,-1441.41Z" style="fill:rgb(157,165,181);"/>
    </g>
    <g transform="matrix(0.163683,0,0,0.164043,-44.9123,347.663)">
        <path d="M777.023,-1332.11L777.037,-1332.11L777.037,-1337.52L806.242,-1337.52L806.242,-1332.11L834.655,-1332.11L834.655,-1289.23L777.023,-1289.23L777.023,-1332.11Z" style="fill:rgb(157,165,181);"/>
    </g>
    <g transform="matrix(0.163683,0,0,0.164043,-33.2378,366.142)">
        <path d="M777.023,-1332.11L777.037,-1332.11L777.037,-1337.52L806.242,-1337.52L806.242,-1332.11L834.655,-1332.11L834.655,-1289.23L777.023,-1289.23L777.023,-1332.11Z" style="fill:rgb(157,165,181);"/>
    </g>
    <g transform="matrix(0.163683,0,0,0.164043,-33.2305,399.106)">
        <path d="M777.023,-1332.11L777.037,-1332.11L777.037,-1337.52L806.242,-1337.52L806.242,-1332.11L834.655,-1332.11L834.655,-1289.23L777.023,-1289.23L777.023,-1332.11Z" style="fill:rgb(157,165,181);"/>
    </g>
    <g transform="matrix(0.163683,0,0,0.164043,-33.2305,414.834)">
        <path d="M777.023,-1332.11L777.037,-1332.11L777.037,-1337.52L806.242,-1337.52L806.242,-1332.11L834.655,-1332.11L834.655,-1289.23L777.023,-1289.23L777.023,-1332.11Z" style="fill:rgb(157,165,181);"/>
    </g>
    <g transform="matrix(0.163683,0,0,0.164043,-33.2305,431.88)">
        <path d="M777.023,-1332.11L777.037,-1332.11L777.037,-1337.52L806.242,-1337.52L806.242,-1332.11L834.655,-1332.11L834.655,-1289.23L777.023,-1289.23L777.023,-1332.11Z" style="fill:rgb(157,165,181);"/>
    </g>
    <g transform="matrix(0.163683,0,0,0.164043,-46.9441,347.494)">
        <path d="M931.389,-1128.14L931.389,-1069.61L981.512,-1069.61L981.512,-1113.14L966.823,-1128.12L931.389,-1128.14ZM934.964,-1123.97L934.964,-1073.79L977.937,-1073.79L977.937,-1111.11L965.343,-1123.95L934.964,-1123.97Z" style="fill:rgb(157,165,181);"/>
    </g>
    <g transform="matrix(0.163683,0,0,0.164043,-58.5757,412.939)">
        <path d="M931.389,-1128.14L931.389,-1069.61L981.512,-1069.61L981.512,-1113.14L966.823,-1128.12L931.389,-1128.14ZM934.964,-1123.97L934.964,-1073.79L977.937,-1073.79L977.937,-1111.11L965.343,-1123.95L934.964,-1123.97Z" style="fill:rgb(157,165,181);"/>
    </g>
    <g transform="matrix(0.163683,0,0,0.164043,-58.5757,445.72)">
        <path d="M931.389,-1128.14L931.389,-1069.61L981.512,-1069.61L981.512,-1113.14L966.823,-1128.12L931.389,-1128.14ZM934.964,-1123.97L934.964,-1073.79L977.937,-1073.79L977.937,-1111.11L965.343,-1123.95L934.964,-1123.97Z" style="fill:rgb(157,165,181);"/>
    </g>
    <g transform="matrix(0.163683,0,0,0.164043,-58.5757,429.474)">
        <path d="M931.389,-1128.14L931.389,-1069.61L981.512,-1069.61L981.512,-1113.14L966.823,-1128.12L931.389,-1128.14ZM934.964,-1123.97L934.964,-1073.79L977.937,-1073.79L977.937,-1111.11L965.343,-1123.95L934.964,-1123.97Z" style="fill:rgb(157,165,181);"/>
    </g>
    <g transform="matrix(0.163683,0,0,0.164043,-58.5757,462.254)">
        <path d="M931.389,-1128.14L931.389,-1069.61L981.512,-1069.61L981.512,-1113.14L966.823,-1128.12L931.389,-1128.14ZM934.964,-1123.97L934.964,-1073.79L977.937,-1073.79L977.937,-1111.11L965.343,-1123.95L934.964,-1123.97Z" style="fill:rgb(157,165,181);"/>
    </g>
    <g transform="matrix(2.07318,0,0,2.07318,2177.7,-2044.85)">
        <path d="M-761.62,1377.6C-760.138,1396.46 -750.416,1404.22 -743.566,1410.07C-736.604,1416.02 -723.019,1417.49 -720.747,1418.08C-718.399,1418.69 -711.814,1420 -712.078,1430.62C-712.382,1442.84 -721.328,1442.11 -721.361,1442.1L-895.001,1442.1C-899.851,1442.1 -904.732,1438.94 -904.787,1428.81C-904.842,1418.67 -894.782,1417.63 -890.455,1416.39C-885.947,1415.1 -873.662,1410.74 -863.697,1402.19C-855.545,1395.2 -854.935,1382.12 -854.983,1377.6L-1030.44,1377.6C-1040.54,1377.6 -1048.74,1369.39 -1048.74,1359.3L-1048.74,1029.88C-1048.74,1019.78 -1040.54,1011.58 -1030.44,1011.58L-587.149,1011.58C-577.048,1011.58 -568.848,1019.78 -568.848,1029.88L-568.848,1359.3C-568.848,1369.39 -577.048,1377.6 -587.149,1377.6L-761.62,1377.6ZM-808.754,1318.01C-797.58,1318.01 -788.507,1327.08 -788.507,1338.26C-788.507,1349.43 -797.58,1358.5 -808.754,1358.5C-819.929,1358.5 -829.001,1349.43 -829.001,1338.26C-829.001,1327.08 -819.929,1318.01 -808.754,1318.01ZM-613.386,1042.96L-1004.77,1042.96C-1011.77,1042.96 -1017.45,1048.65 -1017.45,1055.65L-1017.45,1284C-1017.45,1291 -1011.77,1296.68 -1004.77,1296.68L-613.386,1296.68C-606.384,1296.68 -600.7,1291 -600.7,1284L-600.7,1055.65C-600.7,1048.65 -606.383,1042.96 -613.386,1042.96Z" style="fill:white;"/>
    </g>
</svg>
