<?xml version="1.0" encoding="UTF-8" standalone="no"?>
<!DOCTYPE svg PUBLIC "-//W3C//DTD SVG 1.1//EN" "http://www.w3.org/Graphics/SVG/1.1/DTD/svg11.dtd">
<svg width="100%" height="100%" viewBox="0 0 1000 1000" version="1.1" xmlns="http://www.w3.org/2000/svg" xmlns:xlink="http://www.w3.org/1999/xlink" xml:space="preserve" xmlns:serif="http://www.serif.com/" style="fill-rule:evenodd;clip-rule:evenodd;stroke-linecap:round;stroke-linejoin:round;stroke-miterlimit:1.5;">
    <g transform="matrix(2.05167,0,0,1,-192.391,270.491)">
        <path d="M182.938,204.192L473.405,204.192" style="fill:none;stroke:rgb(155,165,176);stroke-width:18.07px;"/>
    </g>
    <g transform="matrix(1,0,0,1,60.184,92.5367)">
        <path d="M182.938,204.192L473.405,204.192" style="fill:none;stroke:rgb(155,165,176);stroke-width:29.17px;"/>
    </g>
    <g transform="matrix(1,0,0,1,60.184,183.755)">
        <path d="M182.938,204.192L473.405,204.192" style="fill:none;stroke:rgb(155,165,176);stroke-width:29.17px;"/>
    </g>
    <g transform="matrix(1,0,0,1,-19.5966,4.37279)">
        <path d="M949.09,209.555C949.09,146.576 897.959,95.444 834.979,95.444L217.592,95.444C154.612,95.444 103.481,146.576 103.481,209.555L103.481,437.777C103.481,500.757 154.612,551.888 217.592,551.888L834.979,551.888C897.959,551.888 949.09,500.757 949.09,437.777L949.09,209.555Z" style="fill:none;stroke:white;stroke-width:41.67px;"/>
    </g>
    <path d="M920.558,0.521C963.844,0.521 998.986,35.664 998.986,78.949L998.986,235.805C998.986,279.09 963.843,314.233 920.558,314.233L804.846,314.233C773.655,373.511 678.055,373.541 678.197,373.421C705.27,350.582 717.574,325.249 723.165,306.922C696.396,294.434 677.825,267.271 677.825,235.805L677.825,78.949C677.825,35.664 712.967,0.521 756.253,0.521L920.558,0.521Z" style="fill:rgb(251,191,70);"/>
    <g transform="matrix(1.85676,0,0,1.85676,-377.975,-451.527)">
        <circle cx="472.046" cy="444.41" r="80.173" style="fill:rgb(227,174,148);"/>
    </g>
    <g transform="matrix(2.02115,0,0,2.02115,-452.203,-537.763)">
        <path d="M352.48,602.015C352.605,553.492 405.386,514.127 470.378,514.127C535.371,514.127 588.151,553.492 588.276,602.015L352.48,602.015Z" style="fill:rgb(227,174,148);"/>
    </g>
    <g transform="matrix(-0.60622,-7.42405e-17,7.42405e-17,-0.60622,784.419,782.421)">
        <path d="M352.48,602.015C352.605,553.492 405.386,514.127 470.378,514.127C535.371,514.127 588.151,553.492 588.276,602.015L352.48,602.015Z" style="fill:rgb(40,57,74);"/>
    </g>
    <g transform="matrix(1.5194,0,0,1.5194,-213.873,86.683)">
        <path d="M352.48,602.015C352.605,553.492 405.386,514.127 470.378,514.127C535.371,514.127 588.151,553.492 588.276,602.015L352.48,602.015Z" style="fill:rgb(40,57,74);"/>
    </g>
    <g transform="matrix(1.39582,0,0,1.39582,-479.757,151.51)">
        <circle cx="472.046" cy="444.41" r="80.173" style="fill:rgb(40,57,74);"/>
    </g>
    <g transform="matrix(1.5194,0,0,1.5194,-535.557,86.683)">
        <path d="M352.48,602.015C352.605,553.492 405.386,514.127 470.378,514.127C535.371,514.127 588.151,553.492 588.276,602.015L352.48,602.015Z" style="fill:rgb(40,57,74);"/>
    </g>
    <g transform="matrix(1.39582,0,0,1.39582,161.897,151.51)">
        <circle cx="472.046" cy="444.41" r="80.173" style="fill:rgb(40,57,74);"/>
    </g>
    <g transform="matrix(1.5194,0,0,1.5194,106.096,86.683)">
        <path d="M352.48,602.015C352.605,553.492 405.386,514.127 470.378,514.127C535.371,514.127 588.151,553.492 588.276,602.015L352.48,602.015Z" style="fill:rgb(40,57,74);"/>
    </g>
    <g transform="matrix(2.02115,0,0,2.02115,109.861,-453.87)">
        <circle cx="164.95" cy="395.441" r="10.567" style="fill:rgb(40,57,74);"/>
    </g>
    <g transform="matrix(2.02115,0,0,2.02115,216.299,-453.87)">
        <circle cx="164.95" cy="395.441" r="10.567" style="fill:rgb(40,57,74);"/>
    </g>
    <g transform="matrix(1.84538,0,0,1.84538,804.677,148.806)">
        <text x="2.774px" y="-8.521px" style="font-family:'ArialMT', 'Arial', sans-serif;font-size:67.737px;fill:white;">if</text>
        <text x="-42.422px" y="61.432px" style="font-family:'ArialMT', 'Arial', sans-serif;font-size:67.737px;fill:white;">else</text>
    </g>
    <g transform="matrix(1.39582,0,0,1.39582,-158.072,151.51)">
        <circle cx="472.046" cy="444.41" r="80.173" style="fill:rgb(40,57,74);"/>
    </g>
    <path d="M182.938,204.192L473.405,204.192" style="fill:none;stroke:rgb(155,165,176);stroke-width:29.17px;"/>
</svg>
