<?xml version="1.0" encoding="UTF-8" standalone="no"?>
<!DOCTYPE svg PUBLIC "-//W3C//DTD SVG 1.1//EN" "http://www.w3.org/Graphics/SVG/1.1/DTD/svg11.dtd">
<svg width="100%" height="100%" viewBox="0 0 1000 1000" version="1.1" xmlns="http://www.w3.org/2000/svg" xmlns:xlink="http://www.w3.org/1999/xlink" xml:space="preserve" xmlns:serif="http://www.serif.com/" style="fill-rule:evenodd;clip-rule:evenodd;stroke-linecap:round;stroke-linejoin:round;stroke-miterlimit:1.5;">
    <g transform="matrix(2.33276,0,0,2.33276,-415.398,-636.994)">
        <circle cx="472.046" cy="444.41" r="80.173" style="fill:rgb(227,174,148);"/>
    </g>
    <g transform="matrix(2.5393,0,0,2.5393,-508.656,-745.337)">
        <path d="M352.48,602.015C352.605,553.492 405.386,514.127 470.378,514.127C535.371,514.127 588.151,553.492 588.276,602.015L352.48,602.015Z" style="fill:rgb(227,174,148);"/>
    </g>
    <g transform="matrix(-0.761632,-9.3273e-17,9.3273e-17,-0.761632,1044.99,913.293)">
        <path d="M352.48,602.015C352.605,553.492 405.386,514.127 470.378,514.127C535.371,514.127 588.151,553.492 588.276,602.015L352.48,602.015Z" style="fill:rgb(40,57,74);"/>
    </g>
    <g transform="matrix(2.5393,0,0,2.5393,197.5,-639.936)">
        <circle cx="164.95" cy="395.441" r="10.567" style="fill:rgb(40,57,74);"/>
    </g>
    <g transform="matrix(2.5393,0,0,2.5393,331.225,-639.936)">
        <circle cx="164.95" cy="395.441" r="10.567" style="fill:rgb(40,57,74);"/>
    </g>
    <g transform="matrix(1,0,0,1,2.33224,-9.38375)">
        <g transform="matrix(0.527041,0,0,0.527041,-23.2967,-18.1403)">
            <path d="M349.298,620.865C280.036,573.74 234.51,494.277 234.51,404.265C234.51,259.776 351.817,142.469 496.306,142.469C640.795,142.469 758.101,259.776 758.101,404.265C758.101,495.19 711.648,575.35 641.2,622.288C620.013,643.674 614.83,661.234 614.83,661.234C614.83,661.234 608.95,727.826 495.778,727.381C387.622,726.955 385.978,686.408 373.797,656.383C367.895,641.836 357.966,629.607 349.298,620.865Z" style="fill:rgb(251,191,70);"/>
        </g>
        <g transform="matrix(0.819003,0,0,0.819003,-172.113,-193.499)">
            <path d="M500.931,386.82C517.988,387.017 535.332,397.921 539.216,414.703C545.96,443.84 533.057,475.99 513.519,498.256L513.454,498.328C521.978,503.308 531.01,507.44 540.471,510.167C543.791,492.04 548.787,472.529 566.28,464.335C576.618,459.493 589.183,458.405 598.495,464.134C610.989,471.822 619.294,487.653 612.039,502.004C604.373,517.167 585.187,525.475 568.457,528.275C563.553,529.095 558.548,529.201 553.58,528.826L553.372,528.809C542.299,591.619 533.32,655.372 533.197,718.146L533.196,718.949C532.775,721.33 532.951,722.15 531.321,724.09C527.272,728.909 517.185,727.295 517.197,718.125C517.281,654.582 526.298,590.476 537.395,527.28L537.624,525.982C537.253,525.881 536.882,525.779 536.511,525.675C524.309,522.209 512.826,516.788 502.122,510.18L501.844,510.008C492.471,518.386 482.192,525.497 471.136,531.191C491.349,590.424 491.475,654.988 491.498,717.178C491.499,720.627 491.161,725.763 487.499,727.878C484.22,729.772 479.733,728.908 477.37,726.093C475.741,724.152 475.918,723.332 475.498,720.951C475.498,717.788 475.497,714.625 475.493,711.462C475.398,652.682 474.882,592.831 456.338,537.378C456.338,537.378 451.567,537.923 447.967,538.024C431.827,538.477 415.214,536.538 400.407,531.661C394.646,529.764 389.139,527.168 384.905,522.427C378.232,514.953 374.803,504.814 376.055,494.62C378.717,472.945 400.184,452.791 421.996,459.175C430.153,461.562 436.213,468.222 441.824,475.317C451.558,487.627 459.245,501.481 465.35,515.934L465.428,516.121C473.596,511.786 481.282,506.506 488.363,500.533C478.96,493.062 470.924,484.098 466.686,472.281C462.696,461.156 462.187,449.02 462.195,437.466C462.206,422.571 464.111,406.313 476.09,395.742C482.642,389.959 491.409,386.932 500.258,386.82C500.595,386.819 500.595,386.819 500.931,386.82ZM414.132,474.069C405.668,474.147 397.974,481.328 394.294,488.845C391.557,494.436 390.797,501.284 393.63,507.063C398.087,516.151 410.443,518.454 422.381,520.25C431.648,521.645 441.07,522.568 450.373,521.889L450.492,521.88C443.914,506.306 435.408,491.606 423.89,478.874C421.404,476.126 418.04,474.145 414.417,474.07C414.322,474.069 414.227,474.069 414.132,474.069ZM586.221,476.327C579.588,476.372 572.722,477.741 567.874,482.373C559.753,490.132 558.201,502.207 556.293,512.59C556.293,512.59 555.407,512.936 557.025,513.002C569.861,513.449 583.222,508.722 593,500.433C595.929,497.95 598.683,494.825 598.785,490.914C598.958,484.275 592.848,478.162 587.503,476.524C587.09,476.397 586.66,476.326 586.221,476.327ZM500.396,402.82C493.348,402.909 486.542,406.247 482.749,412.525C477.388,421.4 478.188,432.78 478.205,443.427C478.274,458.164 481.416,472.849 493.019,483.492C495.261,485.548 497.609,487.487 500.023,489.338C516.622,471.258 528.071,447.048 524.25,421.776C523.857,419.174 523.348,416.574 522.063,414.237C517.937,406.731 508.98,402.914 500.81,402.82C500.603,402.819 500.603,402.819 500.396,402.82Z" style="fill:white;fill-rule:nonzero;"/>
        </g>
        <g transform="matrix(0.838263,0,0,0.838263,-177.829,-286.206)">
            <path d="M573.192,749.867C576.881,749.867 579.876,752.862 579.876,756.551L579.876,769.918C579.876,773.158 577.566,775.862 574.504,776.473C577.566,777.083 579.876,779.787 579.876,783.027L579.876,796.395C579.876,799.728 577.431,802.495 574.238,802.997C577.431,803.499 579.876,806.266 579.876,809.599L579.876,822.967C579.876,826.656 576.881,829.65 573.192,829.65L550.253,829.65C548.949,848.359 525.433,863.285 496.657,863.285C467.88,863.285 444.364,848.359 443.061,829.65L419.879,829.65C416.19,829.65 413.195,826.656 413.195,822.967L413.195,809.599C413.195,806.266 415.64,803.499 418.834,802.997C415.64,802.495 413.195,799.728 413.195,796.395L413.195,783.027C413.195,779.787 415.505,777.083 418.567,776.473C415.505,775.862 413.195,773.158 413.195,769.918L413.195,756.551C413.195,752.862 416.19,749.867 419.879,749.867L573.192,749.867Z" style="fill:rgb(155,165,176);"/>
        </g>
    </g>
    <g transform="matrix(0.179373,0,0,1,377.737,-32.1895)">
        <path d="M182.938,204.192L473.405,204.192" style="fill:none;stroke:white;stroke-width:29px;"/>
    </g>
    <g transform="matrix(0.218895,-0.117533,0.473058,0.881031,248.704,-65.1938)">
        <path d="M182.938,204.192L473.405,204.192" style="fill:none;stroke:white;stroke-width:28.59px;"/>
    </g>
    <g transform="matrix(0.218895,0.117533,0.473058,-0.881031,265.233,406.969)">
        <path d="M182.938,204.192L473.405,204.192" style="fill:none;stroke:white;stroke-width:28.59px;"/>
    </g>
    <g transform="matrix(-0.179373,0,0,1,99.0481,-32.1895)">
        <path d="M182.938,204.192L473.405,204.192" style="fill:none;stroke:white;stroke-width:29px;"/>
    </g>
    <g transform="matrix(-0.218895,-0.117533,-0.473058,0.881031,228.08,-65.1938)">
        <path d="M182.938,204.192L473.405,204.192" style="fill:none;stroke:white;stroke-width:28.59px;"/>
    </g>
    <g transform="matrix(-0.218895,0.117533,-0.473058,-0.881031,211.551,406.969)">
        <path d="M182.938,204.192L473.405,204.192" style="fill:none;stroke:white;stroke-width:28.59px;"/>
    </g>
    <g transform="matrix(0.957625,0,0,1.14189,6.72256,-66.399)">
        <ellipse cx="519.699" cy="874.002" rx="581.709" ry="209.875" style="fill:rgb(155,165,176);stroke:white;stroke-width:35.59px;"/>
    </g>
    <g transform="matrix(-0.351528,0.978987,-0.978987,-0.351528,899.977,1554.62)">
        <rect x="-601.739" y="464.753" width="154.671" height="194.94" style="fill:white;"/>
    </g>
    <g transform="matrix(0.219438,0.09201,-0.09201,0.219438,366.954,691.716)">
        <g transform="matrix(4.5187,-0.732859,-0.732859,4.5187,-553.938,223.994)">
            <path d="M177.345,126.556L169.807,132.823L162.118,172.546L173.983,185.503L215.555,176.842L223.269,164.798L204.351,140.421L177.345,126.556Z" style="fill:white;"/>
        </g>
        <g transform="matrix(1.99886,-0.324181,-0.324181,1.99886,-2750.36,-1359.82)">
            <path d="M1608.53,1433.95L1640.09,1294.49L1849.48,1086.2L1957.14,1191.12L1748.39,1401.4L1608.53,1433.95ZM1661.88,1290.7C1658.11,1290.69 1656.62,1292.14 1656.62,1292.14L1648.87,1300.14L1629.93,1382.85L1658.26,1411.82L1742.59,1392.87C1742.59,1392.87 1749.46,1385.27 1749.42,1384.76C1749.39,1384.24 1754.62,1374.69 1746.11,1364.45C1739.64,1356.66 1732.29,1355.19 1726.97,1355.11L1726.63,1355.1C1724.85,1355.09 1723.31,1355.23 1722.12,1355.33C1720.68,1355.45 1719.6,1355.68 1718.87,1355.7L1718.78,1355.7C1717.63,1355.69 1717.4,1355.08 1718.02,1352.43C1718.05,1352.3 1718.06,1352.17 1718.1,1352.04C1720.87,1343.87 1717.15,1334.02 1711.54,1329.4C1707.09,1325.74 1700.9,1322.79 1695.1,1322.72L1694.93,1322.72C1693.36,1322.72 1691.83,1322.93 1690.37,1323.39C1689.36,1323.71 1688.57,1323.87 1687.96,1323.89L1687.82,1323.9C1685.56,1323.92 1685.83,1322.05 1686.34,1319.99C1687.49,1315.37 1688.54,1301.28 1674.13,1294.21C1668.72,1291.55 1664.79,1290.74 1662.04,1290.7L1661.88,1290.7Z" style="fill:rgb(251,191,70);"/>
        </g>
        <g transform="matrix(1.99886,-0.324181,-0.324181,1.99886,-2750.15,-1359.65)">
            <path d="M1995.18,1152.83L1887.08,1048.42L1938.99,996.69L1989.98,1048.32L2046.66,1101.6L1995.18,1152.83Z" style="fill:rgb(227,174,148);"/>
        </g>
        <g transform="matrix(1.99886,-0.324181,-0.324181,1.99886,-2910.67,-1199.13)">
            <path d="M2036.81,1111.4L1928.71,1006.99L1946.12,989.562L2053.78,1094.48L2036.81,1111.4Z" style="fill:rgb(155,165,176);"/>
        </g>
        <g transform="matrix(4.5187,-0.732859,-0.732859,4.5187,-553.938,223.994)">
            <path d="M163.42,170.685L176.198,183.529L159.391,187.776L163.42,170.685Z" style="fill:rgb(155,165,176);"/>
        </g>
    </g>
</svg>
